<svg width="416" height="413" viewBox="0 0 416 413" fill="none" xmlns="http://www.w3.org/2000/svg">
<path d="M80.3861 354.413H344.033C382.085 354.413 407.546 315.302 392.111 280.561C386.926 268.891 386.173 255.735 389.992 243.551L400.348 210.511C411.143 176.072 387.712 140.373 351.788 136.529L348.087 136.133C326.231 133.794 308.209 117.98 303.07 96.6322C293.692 57.6766 245.557 43.5473 216.57 71.2419L200.85 86.2619C186.428 100.041 166.331 106.195 146.656 102.856L143.777 102.367C103.087 95.4621 67.4274 130.086 73.1855 170.91C76.3133 193.085 67.0061 215.185 48.9498 228.459L40.9245 234.359C25.686 245.562 15.9396 262.712 14.121 281.523C10.3438 320.593 41.0901 354.413 80.3861 354.413Z" fill="#DAF1FC"/>
<path d="M151.421 320.839C159.04 330.486 141.05 346.437 131.103 353.207H125.388C130.891 338.398 143.801 311.191 151.421 320.839Z" fill="white"/>
<path fill-rule="evenodd" clip-rule="evenodd" d="M148.217 319.744C149.023 319.855 149.866 320.323 150.714 321.397C152.405 323.538 152.705 326.035 151.988 328.787C151.262 331.572 149.502 334.568 147.143 337.543C142.504 343.395 135.738 348.935 130.824 352.307H126.69C129.467 345.031 133.809 335.315 138.365 328.344C140.787 324.639 143.195 321.829 145.377 320.515C146.453 319.867 147.396 319.631 148.217 319.744ZM136.857 327.359C131.936 334.888 127.305 345.463 124.544 352.894L124.093 354.108H131.38L131.61 353.952C136.626 350.538 143.69 344.798 148.555 338.661C150.985 335.596 152.915 332.372 153.731 329.241C154.555 326.078 154.246 322.963 152.128 320.281C151.071 318.943 149.843 318.15 148.463 317.96C147.099 317.773 145.74 318.195 144.448 318.973C141.895 320.509 139.303 323.618 136.857 327.359Z" fill="black"/>
<path d="M136.817 271.967C153.579 285.168 137.875 331.627 127.927 353.206H110.784C111.419 324.011 115.864 255.465 136.817 271.967Z" fill="black"/>
<path fill-rule="evenodd" clip-rule="evenodd" d="M128.838 294.553L131.486 280.057L133.258 280.38L126.979 314.754L136.403 309.883L137.23 311.483L126.57 316.992L119.925 353.369L118.153 353.045L122.032 331.808L115.099 320.679L116.629 319.728L122.513 329.174L128.196 298.067L123.906 286.237L125.6 285.624L128.838 294.553Z" fill="white"/>
<path d="M86.6583 261.813C111.548 263.844 121.58 323.589 123.484 353.208H107.611C91.7378 334.167 55.5467 259.274 86.6583 261.813Z" fill="white"/>
<path fill-rule="evenodd" clip-rule="evenodd" d="M78.5912 264.886C80.3113 263.266 82.8692 262.407 86.5835 262.71C92.4243 263.187 97.5082 267.056 101.907 273.303C106.3 279.543 109.913 288.026 112.829 297.431C118.533 315.832 121.506 337.548 122.52 352.307H108.034C100.161 342.689 87.403 319.604 80.3657 299.125C76.8013 288.753 74.7568 279.193 75.4691 272.439C75.8239 269.074 76.8509 266.524 78.5912 264.886ZM78.662 299.71C85.8304 320.57 98.8933 344.158 106.918 353.784L107.188 354.108H124.443L124.382 353.15C123.427 338.297 120.434 315.881 114.549 296.898C111.608 287.411 107.928 278.726 103.38 272.267C98.8376 265.815 93.3341 261.454 86.7301 260.915C82.6666 260.584 79.5497 261.51 77.3561 263.575C75.1826 265.621 74.0568 268.654 73.6775 272.25C72.9215 279.42 75.0834 289.297 78.662 299.71Z" fill="black"/>
<path d="M89.1967 326.55C96.308 323.504 106.69 344.258 110.711 354.413H104.362C98.0123 349.97 80.3077 330.358 89.1967 326.55Z" fill="black"/>
<path fill-rule="evenodd" clip-rule="evenodd" d="M91.5366 286.749L86.4434 272.267L88.1429 271.67L99.6222 304.309L104.974 296.832L106.439 297.88L100.352 306.385L116.715 352.91L115.015 353.507L105.744 327.145L96.9707 321.6L97.9334 320.078L104.781 324.406L92.3727 289.126L81.8328 284.209L82.5947 282.577L91.5366 286.749Z" fill="black"/>
<path d="M355.158 279.519L352.531 282.962C352.371 283.172 352.11 283.273 351.855 283.224L348.608 282.601C347.909 282.467 347.488 283.366 348.027 283.84L350.579 286.083C350.765 286.247 350.853 286.499 350.81 286.747L350.17 290.446C350.05 291.141 350.886 291.571 351.36 291.058L353.981 288.215C354.135 288.048 354.358 287.968 354.58 287.999L357.614 288.421C358.297 288.517 358.684 287.645 358.165 287.181L355.909 285.166C355.727 285.004 355.641 284.758 355.68 284.515L356.391 280.072C356.507 279.345 355.6 278.938 355.158 279.519Z" fill="white"/>
<path d="M136.513 62.938L136.247 66.4774C136.231 66.6927 136.097 66.877 135.901 66.955L133.404 67.9476C132.866 68.1612 132.978 68.9689 133.557 69.061L136.3 69.4967C136.5 69.5285 136.672 69.6648 136.753 69.8551L137.96 72.7001C138.187 73.2349 138.95 73.1663 139.046 72.6026L139.575 69.4822C139.606 69.299 139.722 69.1452 139.888 69.0692L142.151 68.0317C142.66 67.7979 142.538 67.0239 141.976 66.9301L139.537 66.5229C139.341 66.4902 139.172 66.3575 139.091 66.1721L137.602 62.7799C137.359 62.2251 136.557 62.3413 136.513 62.938Z" fill="#FFF785"/>
<path d="M273.596 93.4532C273.596 91.3508 275.3 89.6465 277.402 89.6465H377.288C379.391 89.6465 381.095 91.3508 381.095 93.4532V246.093C381.095 248.196 379.391 249.9 377.288 249.9H277.402C275.3 249.9 273.596 248.196 273.596 246.093V93.4532Z" fill="white"/>
<path fill-rule="evenodd" clip-rule="evenodd" d="M273.025 93.4534C273.025 91.0359 274.985 89.0762 277.403 89.0762H377.289C379.706 89.0762 381.666 91.0359 381.666 93.4534V246.094C381.666 248.511 379.706 250.471 377.289 250.471H277.403C274.985 250.471 273.025 248.511 273.025 246.094V93.4534ZM277.403 90.2173C275.615 90.2173 274.167 91.6662 274.167 93.4534V246.094C274.167 247.881 275.615 249.33 277.403 249.33H377.289C379.076 249.33 380.525 247.881 380.525 246.094V93.4534C380.525 91.6662 379.076 90.2173 377.289 90.2173H277.403Z" fill="black"/>
<path d="M273.596 93.4532C273.596 91.3508 275.3 89.6465 277.402 89.6465H377.288C379.391 89.6465 381.095 91.3508 381.095 93.4532V112.54H273.596V93.4532Z" fill="black"/>
<path d="M294.604 101.255C294.604 104.003 292.376 106.231 289.628 106.231C286.88 106.231 284.652 104.003 284.652 101.255C284.652 98.507 286.88 96.2793 289.628 96.2793C292.376 96.2793 294.604 98.507 294.604 101.255Z" fill="white"/>
<path d="M311.192 101.255C311.192 104.003 308.964 106.231 306.216 106.231C303.468 106.231 301.24 104.003 301.24 101.255C301.24 98.507 303.468 96.2793 306.216 96.2793C308.964 96.2793 311.192 98.507 311.192 101.255Z" fill="white"/>
<path d="M327.774 101.255C327.774 104.003 325.546 106.231 322.798 106.231C320.05 106.231 317.822 104.003 317.822 101.255C317.822 98.507 320.05 96.2793 322.798 96.2793C325.546 96.2793 327.774 98.507 327.774 101.255Z" fill="white"/>
<path d="M361.189 170.27C361.189 188.961 346.037 204.113 327.346 204.113C308.656 204.113 293.504 188.961 293.504 170.27C293.504 151.579 308.656 136.428 327.346 136.428C346.037 136.428 361.189 151.579 361.189 170.27Z" fill="#DAF1FC"/>
<path d="M308.434 218.194C308.434 217.564 308.945 217.053 309.575 217.053H346.112C346.742 217.053 347.253 217.564 347.253 218.194V221.884C347.253 222.514 346.742 223.025 346.112 223.025H309.575C308.945 223.025 308.434 222.514 308.434 221.884V218.194Z" fill="black"/>
<path d="M333.017 164.28H345.261V174.863H333.017V189.182H321.707V174.863H309.428V164.28H321.707V150.363H333.017V164.28Z" fill="black"/>
<path d="M146.193 92.4827C146.193 90.3672 147.898 88.6523 150 88.6523H249.886C251.988 88.6523 253.693 90.3672 253.693 92.4827V246.071C253.693 248.186 251.988 249.901 249.886 249.901H150C147.898 249.901 146.193 248.186 146.193 246.071V92.4827Z" fill="white"/>
<path fill-rule="evenodd" clip-rule="evenodd" d="M145.623 92.4826C145.623 90.0501 147.583 88.0781 150 88.0781H249.886C252.304 88.0781 254.264 90.0501 254.264 92.4826V246.071C254.264 248.503 252.304 250.475 249.886 250.475H150C147.583 250.475 145.623 248.503 145.623 246.071V92.4826ZM150 89.2264C148.213 89.2264 146.764 90.6842 146.764 92.4826V246.071C146.764 247.869 148.213 249.327 150 249.327H249.886C251.674 249.327 253.122 247.869 253.122 246.071V92.4826C253.122 90.6842 251.674 89.2264 249.886 89.2264H150Z" fill="black"/>
<path d="M146.193 92.4827C146.193 90.3672 147.898 88.6523 150 88.6523H249.886C251.988 88.6523 253.693 90.3672 253.693 92.4827V111.688H146.193V92.4827Z" fill="black"/>
<path d="M167.201 100.333C167.201 103.098 164.974 105.339 162.226 105.339C159.478 105.339 157.25 103.098 157.25 100.333C157.25 97.5677 159.478 95.3262 162.226 95.3262C164.974 95.3262 167.201 97.5677 167.201 100.333Z" fill="white"/>
<path d="M183.789 100.333C183.789 103.098 181.562 105.339 178.814 105.339C176.066 105.339 173.838 103.098 173.838 100.333C173.838 97.5677 176.066 95.3262 178.814 95.3262C181.562 95.3262 183.789 97.5677 183.789 100.333Z" fill="white"/>
<path d="M200.371 100.333C200.371 103.098 198.144 105.339 195.396 105.339C192.648 105.339 190.42 103.098 190.42 100.333C190.42 97.5677 192.648 95.3262 195.396 95.3262C198.144 95.3262 200.371 97.5677 200.371 100.333Z" fill="white"/>
<path d="M220.291 164.639C220.681 164.287 221.259 164.248 221.693 164.544L239.645 176.79C239.958 177.004 240.146 177.36 240.146 177.74V193.984C240.146 194.618 239.635 195.132 239.005 195.132H189.46C188.413 195.132 187.919 193.832 188.698 193.129L220.291 164.639Z" fill="black"/>
<path d="M213.47 150.62C213.47 154.597 210.266 157.821 206.314 157.821C202.362 157.821 199.158 154.597 199.158 150.62C199.158 146.644 202.362 143.42 206.314 143.42C210.266 143.42 213.47 146.644 213.47 150.62Z" fill="#FFF785"/>
<path fill-rule="evenodd" clip-rule="evenodd" d="M159.561 128.859C159.561 127.908 160.327 127.137 161.272 127.137H239.006C239.951 127.137 240.717 127.908 240.717 128.859V193.984C240.717 194.935 239.951 195.706 239.006 195.706H161.272C160.327 195.706 159.561 194.935 159.561 193.984V128.859ZM161.272 128.285C160.957 128.285 160.702 128.542 160.702 128.859V193.984C160.702 194.301 160.957 194.558 161.272 194.558H239.006C239.321 194.558 239.576 194.301 239.576 193.984V128.859C239.576 128.542 239.321 128.285 239.006 128.285H161.272Z" fill="#DAF1FC"/>
<path d="M160.129 177.36C160.129 177.01 160.288 176.678 160.561 176.46L184.43 157.434C184.862 157.09 185.475 157.105 185.89 157.469L226.469 193.12C227.263 193.818 226.773 195.133 225.718 195.133H161.27C160.64 195.133 160.129 194.619 160.129 193.985V177.36Z" fill="#DAF1FC"/>
<path fill-rule="evenodd" clip-rule="evenodd" d="M185.515 157.901C185.307 157.719 185.001 157.712 184.785 157.884L160.916 176.91C160.779 177.019 160.7 177.185 160.7 177.36V193.985C160.7 194.302 160.955 194.559 161.27 194.559H225.719C226.246 194.559 226.491 193.901 226.094 193.552L185.515 157.901ZM184.076 156.984C184.723 156.468 185.643 156.49 186.265 157.036L226.844 192.688C228.036 193.734 227.3 195.707 225.719 195.707H161.27C160.325 195.707 159.559 194.936 159.559 193.985V177.36C159.559 176.834 159.798 176.337 160.207 176.01L184.076 156.984Z" fill="#DAF1FC"/>
<path d="M229.307 248.862L221.692 243.667C221.258 243.371 220.68 243.41 220.29 243.762L214.635 248.862H229.307Z" fill="black"/>
<path d="M213.472 229.743C213.472 233.72 210.268 236.944 206.316 236.944C202.364 236.944 199.16 233.72 199.16 229.743C199.16 225.767 202.364 222.543 206.316 222.543C210.268 222.543 213.472 225.767 213.472 229.743Z" fill="#FFF785"/>
<path fill-rule="evenodd" clip-rule="evenodd" d="M159.559 207.982C159.559 207.031 160.325 206.26 161.27 206.26H239.004C239.949 206.26 240.715 207.031 240.715 207.982V248.899H239.574V207.982C239.574 207.665 239.319 207.408 239.004 207.408H161.27C160.955 207.408 160.7 207.665 160.7 207.982V248.899H159.559V207.982Z" fill="#DAF1FC"/>
<path d="M199.94 248.898L185.891 236.591C185.475 236.227 184.86 236.214 184.429 236.56L169.084 248.898H199.94Z" fill="#DAF1FC"/>
<path d="M18.7812 93.4532C18.7812 91.3508 20.5013 89.6465 22.6232 89.6465H123.434C125.556 89.6465 127.276 91.3508 127.276 93.4532V246.093C127.276 248.196 125.556 249.9 123.434 249.9H22.6232C20.5013 249.9 18.7812 248.196 18.7812 246.093V93.4532Z" fill="white"/>
<path fill-rule="evenodd" clip-rule="evenodd" d="M18.2051 93.4534C18.2051 91.0359 20.183 89.0762 22.6228 89.0762H123.434C125.874 89.0762 127.851 91.0359 127.851 93.4534V246.094C127.851 248.511 125.874 250.471 123.434 250.471H22.6229C20.183 250.471 18.2051 248.511 18.2051 246.094V93.4534ZM22.6228 90.2173C20.8191 90.2173 19.3568 91.6662 19.3568 93.4534V246.094C19.3568 247.881 20.8191 249.33 22.6229 249.33H123.434C125.238 249.33 126.7 247.881 126.7 246.094V93.4534C126.7 91.6662 125.238 90.2173 123.434 90.2173H22.6228Z" fill="black"/>
<path d="M18.7812 93.4532C18.7812 91.3508 20.5013 89.6465 22.6232 89.6465H123.434C125.556 89.6465 127.276 91.3508 127.276 93.4532V112.54H18.7812V93.4532Z" fill="black"/>
<path d="M39.9848 101.255C39.9848 104.003 37.7365 106.231 34.9631 106.231C32.1897 106.231 29.9414 104.003 29.9414 101.255C29.9414 98.507 32.1897 96.2793 34.9631 96.2793C37.7365 96.2793 39.9848 98.507 39.9848 101.255Z" fill="white"/>
<path d="M56.7251 101.255C56.7251 104.003 54.4768 106.231 51.7034 106.231C48.9299 106.231 46.6816 104.003 46.6816 101.255C46.6816 98.507 48.9299 96.2793 51.7034 96.2793C54.4768 96.2793 56.7251 98.507 56.7251 101.255Z" fill="white"/>
<path d="M73.4614 101.255C73.4614 104.003 71.2131 106.231 68.4397 106.231C65.6663 106.231 63.418 104.003 63.418 101.255C63.418 98.507 65.6663 96.2793 68.4397 96.2793C71.2131 96.2793 73.4614 98.507 73.4614 101.255Z" fill="white"/>
<path d="M92.1155 143.396C92.1155 153.841 83.5699 162.308 73.0284 162.308C62.487 162.308 53.9414 153.841 53.9414 143.396C53.9414 132.952 62.487 124.484 73.0284 124.484C83.5699 124.484 92.1155 132.952 92.1155 143.396Z" fill="#DAF1FC"/>
<path d="M73.2123 143.625C68.012 143.625 63.698 147.441 62.8878 152.44C62.7366 153.373 63.5246 154.145 64.4787 154.145H81.9459C82.9 154.145 83.688 153.373 83.5368 152.44C82.7266 147.441 78.4125 143.625 73.2123 143.625Z" fill="white"/>
<path d="M78.3638 137.437C78.3638 140.171 76.1269 142.387 73.3675 142.387C70.608 142.387 68.3711 140.171 68.3711 137.437C68.3711 134.703 70.608 132.486 73.3675 132.486C76.1269 132.486 78.3638 134.703 78.3638 137.437Z" fill="white"/>
<path d="M52.9355 174.399C52.9355 173.769 53.4512 173.258 54.0873 173.258H90.9625C91.5986 173.258 92.1142 173.769 92.1142 174.399V178.089C92.1142 178.719 91.5986 179.23 90.9625 179.23H54.0873C53.4512 179.23 52.9355 178.719 52.9355 178.089V174.399Z" fill="black"/>
<path d="M30.834 196.295C30.834 195.665 31.3496 195.154 31.9857 195.154H53.7922C54.4283 195.154 54.9439 195.665 54.9439 196.295V218.897C54.9439 219.528 54.4283 220.038 53.7922 220.038H31.9857C31.3496 220.038 30.834 219.528 30.834 218.897V196.295Z" fill="#DAF1FC"/>
<path d="M60.9707 196.295C60.9707 195.665 61.4863 195.154 62.1224 195.154H83.9289C84.565 195.154 85.0806 195.665 85.0806 196.295V218.897C85.0806 219.528 84.565 220.038 83.9289 220.038H62.1224C61.4863 220.038 60.9707 219.528 60.9707 218.897V196.295Z" fill="#DAF1FC"/>
<path d="M91.1094 196.295C91.1094 195.665 91.625 195.154 92.2611 195.154H114.068C114.704 195.154 115.219 195.665 115.219 196.295V218.897C115.219 219.528 114.704 220.038 114.068 220.038H92.2611C91.625 220.038 91.1094 219.528 91.1094 218.897V196.295Z" fill="#FFF785"/>
<path d="M30.834 233.126C30.834 232.495 31.3496 231.984 31.9857 231.984H53.7922C54.4283 231.984 54.9439 232.495 54.9439 233.126V248.906H30.834V233.126Z" fill="#DAF1FC"/>
<path d="M60.9707 233.126C60.9707 232.495 61.4863 231.984 62.1224 231.984H83.9289C84.565 231.984 85.0806 232.495 85.0806 233.126V248.906H60.9707V233.126Z" fill="#DAF1FC"/>
<path d="M91.1094 233.126C91.1094 232.495 91.625 231.984 92.2611 231.984H114.068C114.704 231.984 115.219 232.495 115.219 233.126V248.906H91.1094V233.126Z" fill="#DAF1FC"/>
<path d="M106.375 209.088H136.734M136.734 209.088V176.687C136.734 175.341 137.825 174.25 139.171 174.25H146.19M136.734 209.088V264.879C136.734 266.225 137.825 267.317 139.171 267.317H324.411C325.757 267.317 326.848 266.225 326.848 264.879V250.893" stroke="black" stroke-width="1.625"/>
<path d="M169.516 199.944L184.2 188.124L185.67 186.941C186.557 186.227 186.698 184.928 185.983 184.04L176.857 172.703C176.378 172.107 175.608 171.826 174.857 171.971L172.912 172.349C172.161 172.494 171.391 172.213 170.912 171.617L166.586 166.242C165.871 165.355 164.572 165.214 163.685 165.929L150.608 176.455C149.72 177.17 149.58 178.469 150.295 179.356L166.615 199.631C167.33 200.519 168.628 200.659 169.516 199.944Z" fill="#FFF785"/>
<path d="M163.456 203.948C166.388 208.054 170.265 210.757 172.081 211.211L179.798 205.31C179.435 201.316 177.831 195.475 177.074 193.054L170.719 197.593C170.265 192.146 167.996 187.153 165.726 187.607C163.91 187.97 164.364 194.416 164.818 197.593L159.37 190.33C158.462 193.054 158.917 197.593 163.456 203.948Z" fill="#EFCB96"/>
<path d="M271.635 233.354L272.75 243.857C271.661 245.097 268.357 247.51 263.851 247.242C259.344 246.974 256.061 244.169 254.982 242.8L256.901 232.478C251.268 232.143 250.328 225.999 250.23 220.339C250.132 214.68 252.566 195.691 267.857 201.819C280.09 206.721 275.473 224.885 271.635 233.354Z" fill="#EFCB96"/>
<path d="M259.911 225.7L261.232 232.736C267.655 234.423 269.821 234.551 272.499 233.406C275.176 232.261 279.416 219.467 280.236 212.993C281.056 206.518 275.552 204.017 272.596 202.536C255.323 185.853 245.986 196.605 246.518 202.29C246.943 206.838 253.608 209.814 256.888 210.734C257.294 213.657 258.274 219.601 258.946 219.989C259.787 220.474 261.396 215.351 263.79 218.972C265.705 221.869 262.002 224.664 259.911 225.7Z" fill="black"/>
<path d="M299.951 252.608C287.796 240.106 273.036 240.453 259.145 240.453C252.213 240.861 236.787 241.156 230.536 239.073C222.722 236.468 210.567 232.127 206.66 228.654C202.753 225.181 187.126 203.042 182.785 201.74C178.444 200.437 167.157 209.554 167.157 212.592C167.157 215.631 182.702 251.227 189.255 257.739C195.808 264.251 216.211 278.576 219.683 280.746C218.929 285.284 217.344 297.21 217.037 308.607C216.549 320.682 216.144 343.612 217.692 352.807H314.314C318.073 339.48 323.281 314.424 322.958 308.607C322.524 300.794 315.144 268.236 299.951 252.608Z" fill="#FFF785"/>
<path d="M198.412 265.554C194.245 250.274 185.389 246.164 181.482 246.02C182.929 248.624 186.344 254.528 188.428 257.306C190.511 260.084 195.952 263.962 198.412 265.554Z" fill="black"/>
<path d="M320.352 326.839C315.49 311.211 318.327 299.78 320.352 296.018C321.076 298.043 322.61 303.397 322.957 308.607C323.304 313.816 321.365 322.932 320.352 326.839Z" fill="black"/>
<path d="M307.765 282.127C312.797 303.733 312.51 334.442 311.42 352.807H308.295C310.314 314.064 308.84 289.786 307.765 282.127Z" fill="black"/>
</svg>
