<svg width="319" height="319" viewBox="0 0 319 319" fill="none" xmlns="http://www.w3.org/2000/svg">
<path d="M250.093 95.4614C239.661 91.9903 228.07 76.9488 223.578 69.862C213.581 56.8268 226.621 53.3742 238.357 64.6553C250.093 75.9364 250.093 69.862 259.655 80.2753C269.217 90.6887 263.132 99.8003 250.093 95.4614Z" fill="#4DBDF5" fill-opacity="0.2"/>
<path d="M20.5116 188.455C3.19134 214.389 10.218 239.131 20.2175 256.157C28.2494 269.833 44.2538 275.667 60.1345 275.667H206.436C237.399 275.667 268.047 253.402 279.627 224.736C288.655 202.389 295.682 177.67 286.396 153.801C269.01 109.111 243.365 117.355 210.766 78.7386C178.166 40.1225 143.867 49.4425 90.3651 70.4947C14.4263 100.376 53.5457 138.992 20.5116 188.455Z" fill="#4DBDF5" fill-opacity="0.2"/>
<path d="M52.4863 57.7655C52.4863 50.348 58.4943 44.335 65.9055 44.335H166.155C173.566 44.335 179.574 50.348 179.574 57.7655V261.446C179.574 268.863 173.566 274.876 166.155 274.876H65.9055C58.4943 274.876 52.4863 268.863 52.4863 261.446V57.7655Z" fill="white"/>
<path fill-rule="evenodd" clip-rule="evenodd" d="M51.6973 57.7655C51.6973 49.9117 58.0587 43.5449 65.9058 43.5449H166.155C174.002 43.5449 180.364 49.9117 180.364 57.7655V261.446C180.364 269.299 174.002 275.666 166.155 275.666H65.9058C58.0587 275.666 51.6973 269.299 51.6973 261.446V57.7655ZM65.9058 45.125C58.9306 45.125 53.276 50.7843 53.276 57.7655V261.446C53.276 268.427 58.9306 274.086 65.9058 274.086H166.155C173.13 274.086 178.785 268.427 178.785 261.446V57.7655C178.785 50.7843 173.13 45.125 166.155 45.125H65.9058Z" fill="black"/>
<path d="M90.0039 236.02C90.0039 233.839 91.771 232.07 93.9507 232.07H139.28C141.46 232.07 143.227 233.839 143.227 236.02V239.472C143.227 241.654 141.46 243.423 139.28 243.423H93.9507C91.771 243.423 90.0039 241.654 90.0039 239.472V236.02Z" fill="#FFF785"/>
<path d="M79.9917 212.858C77.812 212.858 76.0449 211.09 76.0449 208.908L76.0449 194.977C76.0449 192.796 77.812 191.027 79.9917 191.027L83.4408 191.027C85.6206 191.027 87.3876 192.796 87.3876 194.977L87.3876 208.908C87.3876 211.09 85.6206 212.858 83.4408 212.858L79.9917 212.858Z" fill="#E7E8FF"/>
<path d="M102.677 212.858C100.498 212.858 98.7305 211.09 98.7305 208.908L98.7305 186.245C98.7305 184.063 100.498 182.295 102.677 182.295L106.126 182.295C108.306 182.295 110.073 184.063 110.073 186.245L110.073 208.908C110.073 211.09 108.306 212.858 106.126 212.858L102.677 212.858Z" fill="#E7E8FF"/>
<path d="M125.363 212.858C123.183 212.858 121.416 211.09 121.416 208.908L121.416 179.259C121.416 177.077 123.183 175.309 125.363 175.309L128.812 175.309C130.992 175.309 132.759 177.077 132.759 179.259L132.759 208.908C132.759 211.09 130.992 212.858 128.812 212.858L125.363 212.858Z" fill="#E7E8FF"/>
<path d="M148.048 212.858C145.869 212.858 144.102 211.09 144.102 208.908L144.102 194.977C144.102 192.796 145.869 191.027 148.048 191.027L151.497 191.027C153.677 191.027 155.444 192.796 155.444 194.977L155.444 208.908C155.444 211.09 153.677 212.858 151.497 212.858L148.048 212.858Z" fill="#E7E8FF"/>
<path d="M89.8747 50.404L86.6406 44.335H145.419L141.489 50.8896C139.492 54.2211 135.895 56.2595 132.013 56.2595H99.6257C95.5444 56.2595 91.7953 54.0082 89.8747 50.404Z" fill="black"/>
<path d="M176.397 49.1049H55.6641C59.7944 44.971 63.7394 44.2026 65.1956 44.335H166.866C171.949 44.335 175.338 47.5149 176.397 49.1049Z" fill="black"/>
<path d="M176.397 270.106H55.6641C59.7944 274.24 63.7394 275.008 65.1956 274.876H166.866C171.949 274.876 175.338 271.696 176.397 270.106Z" fill="black"/>
<path fill-rule="evenodd" clip-rule="evenodd" d="M134.276 107.112H75.1719V105.532H134.276V107.112Z" fill="#E7E8FF"/>
<path fill-rule="evenodd" clip-rule="evenodd" d="M75.7793 123.313C75.7793 120.695 77.8998 118.573 80.5155 118.573H141.499C144.114 118.573 146.235 120.695 146.235 123.313V148.949C146.235 151.567 144.114 153.689 141.499 153.689H80.5155C77.8998 153.689 75.7793 151.567 75.7793 148.949V123.313ZM80.5155 120.153C78.7717 120.153 77.358 121.568 77.358 123.313V148.949C77.358 150.694 78.7717 152.109 80.5155 152.109H141.499C143.242 152.109 144.656 150.694 144.656 148.949V123.313C144.656 121.568 143.242 120.153 141.499 120.153H80.5155Z" fill="#FFF785"/>
<path fill-rule="evenodd" clip-rule="evenodd" d="M100.321 126.796C99.6878 125.797 98.2224 125.823 97.6252 126.844L89.1047 141.412C88.5383 142.381 87.5011 142.976 86.3798 142.976H76.5684V141.396H86.3798C86.9404 141.396 87.459 141.098 87.7422 140.614L96.2627 126.046C97.4571 124.004 100.388 123.952 101.654 125.95L109.889 138.946C110.471 139.865 111.784 139.934 112.459 139.082L119.398 130.326C120.591 128.82 122.839 128.72 124.161 130.113L130.425 136.712C130.723 137.026 131.137 137.204 131.569 137.204H144.98V138.784H131.569C130.704 138.784 129.876 138.429 129.28 137.801L123.016 131.201C122.355 130.505 121.231 130.555 120.635 131.308L113.696 140.064C112.346 141.768 109.719 141.629 108.556 139.793L100.321 126.796Z" fill="#FFF785"/>
<path fill-rule="evenodd" clip-rule="evenodd" d="M157.188 94.0127H75.1719V92.4326H157.188V94.0127Z" fill="#E7E8FF"/>
<path d="M132.205 149.701C132.827 152.242 135.71 154.028 136.229 154.954L126.762 163.201C125.207 160.157 123.007 153.617 115.231 152.664C104.345 151.472 103.397 143.317 108.841 142.126C113.195 141.173 120.799 142.706 124.817 143.501L120.227 141.505C119.591 141.229 119.376 140.434 119.787 139.875C120.013 139.567 120.386 139.399 120.768 139.422C122.331 139.515 125.201 139.653 127.54 141.363C129.838 143.042 131.428 146.524 132.205 149.701Z" fill="#EFCB96"/>
<path d="M284.276 275.938L281.532 249.767L185.577 249.137L184.727 275.938H284.276Z" fill="black"/>
<path d="M220.926 116.742L219.65 127.803L220.076 136.312L235.816 138.013L242.623 129.505L241.347 116.742C243.941 115.26 245.889 111.196 246.349 104.83C247.234 104.547 249.004 103.214 249.004 100.151C249.004 97.0876 247.064 96.0382 246.094 95.8964C244.713 85.5698 239.355 81.8574 230.286 81.8574C221.591 81.8574 216.876 87.5445 215.446 95.8964C214.436 95.7546 212.418 96.4069 212.418 100.151C212.418 103.894 214.231 104.83 215.138 104.83C215.969 112.043 219.671 115.738 220.926 116.742Z" fill="#EFCB96"/>
<path fill-rule="evenodd" clip-rule="evenodd" d="M180.512 246.072C184.766 254.58 214.972 254.58 232.839 254.58C247.083 254.58 261.128 253.786 269.681 251.518C272.689 255.017 283.983 258.777 287.658 258.409C291.912 257.984 308.504 213.739 308.929 203.529C309.355 193.319 296.167 148.224 274.045 134.61C274.012 134.592 273.98 134.575 273.948 134.557C273.933 134.432 273.918 134.308 273.902 134.185C263.2 126.516 251.641 124.242 244.751 124.4C244.751 127.236 242.114 132.909 231.563 132.909C221.013 132.909 218.659 127.236 218.375 124.4C214.263 124.514 203.47 125.935 193.913 130.397C187.79 132.739 181.188 136.727 176.689 143.207C170.188 152.567 167.502 160.816 165.716 166.3C164.579 169.789 163.808 172.159 162.65 172.986C161.09 174.1 155.097 168.213 149.13 162.353L149.13 162.353C143.704 157.023 138.3 151.715 136.273 151.715C132.019 151.715 122.234 160.224 122.234 165.329C122.234 170.434 145.633 213.827 152.44 218.507C159.032 223.039 174.365 223.182 178.8 218.934C178.942 233.29 179.581 244.21 180.512 246.072Z" fill="#FFF785"/>
<path d="M212.843 88.6642C212.162 92.7482 212.843 98.4489 214.545 100.576L217.948 93.3438C218.969 94.0245 223.762 94.1947 225.606 94.1947C232.753 93.8543 237.943 89.7986 239.645 87.8133C239.985 90.8763 244.608 99.0161 246.452 102.703C248.721 99.2997 250.195 90.3658 248.153 81.8573C246.111 73.3488 240.496 72.9234 237.092 73.7743C227.733 66.5421 217.097 67.3929 211.992 74.6251C207.908 80.4109 210.291 86.3952 212.843 88.6642Z" fill="black"/>
<path d="M180.472 166.179C179.196 182.345 178.771 207.87 178.771 218.931C177.409 220.293 174.517 220.917 173.24 221.058C175.623 215.613 178.771 182.345 180.472 166.179Z" fill="black"/>
<path d="M265.947 259.783C266.147 257.501 266.961 257.255 269.728 254.642C270.308 254.094 270.808 253.562 271.234 253.063C274.035 255.15 281.515 257.41 284.905 258.279C285.087 263.005 281.33 270.768 279.74 271.617C277.826 272.639 270.611 270.818 268.774 269.15C267.305 267.816 268.603 264.166 269.497 262.711C268.531 261.965 265.787 261.609 265.947 259.783Z" fill="#EFCB96"/>
<path d="M305.1 219.695C298.293 206.421 301.697 188.071 304.249 180.556C305.526 185.377 308.248 196.211 308.929 200.976C309.61 205.741 306.66 215.44 305.1 219.695Z" fill="black"/>
<path d="M274.045 208.634C273.704 202.167 269.649 186.654 267.663 179.705C270.641 187.363 278.299 200.125 278.299 208.634C278.299 215.441 272.059 238.697 268.94 249.475C270.783 238.555 274.385 215.1 274.045 208.634Z" fill="black"/>
<path d="M177.493 219.783C166.943 210.934 150.692 207.871 143.885 207.445C145.019 210.707 149.33 217.911 157.498 220.633C165.667 223.356 174.232 221.201 177.493 219.783Z" fill="black"/>
<path d="M230.673 120.233C225.228 120.233 221.881 117.965 220.888 116.83L220.463 121.084C229.992 126.53 238.614 123.353 241.734 121.084L241.309 116.83C240.032 117.965 236.119 120.233 230.673 120.233Z" fill="black"/>
<path d="M34.9967 68.5017L31.1249 73.6325C30.8893 73.9446 30.5051 74.0949 30.1288 74.0219L25.3433 73.0941C24.3137 72.8945 23.6926 74.2333 24.4872 74.9395L28.2482 78.2819C28.5228 78.5259 28.6525 78.9018 28.5894 79.2705L27.6459 84.7819C27.4685 85.818 28.7013 86.4593 29.3994 85.694L33.2629 81.4586C33.4897 81.2099 33.8186 81.0898 34.146 81.1359L38.6172 81.7659C39.6245 81.9079 40.1949 80.6091 39.429 79.9176L36.1038 76.9152C35.8368 76.6741 35.7092 76.3073 35.7665 75.9455L36.8149 69.3251C36.9864 68.2423 35.6494 67.6368 34.9967 68.5017Z" fill="#FFF785"/>
<path d="M28.0818 123.341L26.5044 125.287C26.4084 125.405 26.2519 125.462 26.0986 125.435L24.1489 125.083C23.7294 125.007 23.4764 125.515 23.8001 125.783L25.3324 127.05C25.4443 127.143 25.4971 127.286 25.4714 127.425L25.087 129.516C25.0147 129.909 25.517 130.152 25.8014 129.862L27.3754 128.255C27.4678 128.161 27.6018 128.115 27.7352 128.133L29.5568 128.372C29.9672 128.426 30.1995 127.933 29.8875 127.671L28.5328 126.532C28.424 126.441 28.3721 126.301 28.3954 126.164L28.8225 123.653C28.8924 123.242 28.3477 123.013 28.0818 123.341Z" fill="#FFF785"/>
<path d="M22.7145 220.431C15.273 234.801 27.5082 261.089 35.2161 273.589C35.6833 274.346 36.5132 274.797 37.4033 274.797H49.2165C50.8017 274.797 52.0176 273.366 51.7742 271.8C44.1628 222.814 25.3144 216.206 22.7145 220.431Z" fill="white"/>
<path fill-rule="evenodd" clip-rule="evenodd" d="M23.4696 220.863C19.9396 227.718 21.037 237.568 24.1145 247.452C27.1796 257.295 32.1296 266.926 35.9563 273.131C36.2609 273.625 36.8069 273.927 37.4035 273.927H49.2167C50.2639 273.927 51.0775 272.976 50.9153 271.932C47.1229 247.524 40.5471 233.796 34.6951 226.714C31.7661 223.17 29.0511 221.328 26.9937 220.606C24.8838 219.865 23.8003 220.362 23.4696 220.863ZM36.0354 225.607C42.1604 233.019 48.8146 247.087 52.6334 271.665C52.958 273.754 51.34 275.666 49.2167 275.666H37.4035C36.2199 275.666 35.106 275.065 34.4763 274.044C30.5951 267.75 25.5736 257.986 22.4544 247.969C19.3528 238.007 18.0519 227.544 21.9427 220.03L21.9575 220.002L21.9743 219.974C22.9615 218.37 25.2084 218.136 27.5698 218.965C30.0156 219.824 32.9759 221.904 36.0354 225.607Z" fill="black"/>
<path d="M45.0763 192.687C28.2711 202.466 35.9981 248.784 42.4135 272.569C42.7178 273.697 43.7431 274.465 44.9118 274.465H53.6995C54.9546 274.465 56.0347 273.563 56.2554 272.328C64.5595 225.832 57.7395 188.422 45.4579 192.514C45.3276 192.557 45.195 192.618 45.0763 192.687Z" fill="black"/>
<path d="M85.6992 223.414C68.0673 224.656 53.9041 254.094 48.0004 271.442C47.4355 273.103 48.6876 274.797 50.4413 274.797H59.9672C60.5315 274.797 61.0787 274.618 61.5247 274.272C82.3662 258.119 96.5201 223.414 85.6992 223.414Z" fill="white"/>
<path fill-rule="evenodd" clip-rule="evenodd" d="M85.7286 224.284C81.569 224.585 77.5549 226.549 73.7524 229.674C69.9407 232.808 66.3872 237.072 63.1739 241.872C56.747 251.472 51.7599 263.093 48.8233 271.723C48.4567 272.8 49.2628 273.928 50.4411 273.928H59.967C60.3472 273.928 60.705 273.808 60.992 273.585C71.2738 265.616 79.944 253.029 84.6918 242.431C87.0696 237.122 88.4241 232.399 88.5489 229.057C88.6116 227.378 88.3589 226.163 87.883 225.395C87.451 224.698 86.7892 224.291 85.7286 224.284ZM86.2786 243.141C81.4442 253.933 72.6167 266.776 62.0571 274.96C61.4519 275.429 60.7155 275.666 59.967 275.666H50.4411C48.112 275.666 46.4139 273.406 47.1772 271.163C50.1443 262.443 55.1906 250.671 61.7291 240.905C64.9986 236.021 68.6609 231.609 72.6483 228.331C76.6352 225.054 80.9929 222.874 85.638 222.547L85.6685 222.545H85.699C87.3264 222.545 88.5811 223.221 89.3608 224.479C90.1006 225.672 90.3546 227.294 90.2864 229.122C90.1494 232.792 88.6918 237.754 86.2786 243.141Z" fill="black"/>
<path fill-rule="evenodd" clip-rule="evenodd" d="M28.7484 227.252C30.8646 230.522 33.235 235.921 35.5505 242.001C37.0546 245.95 38.5454 250.214 39.9387 254.416L42.1086 247.679L43.7636 248.212L40.8598 257.227C43.0157 263.886 44.8759 270.179 46.0943 274.565L44.419 275.03C43.8536 272.995 43.1487 270.545 42.3394 267.836L36.5469 264.618L37.3913 263.098L41.6185 265.446C40.8512 262.928 40.01 260.241 39.1193 257.496C37.5506 252.662 35.83 247.651 34.0906 243.054L25.8359 241.169L26.2231 239.474L33.3396 241.099C31.223 235.674 29.1264 231.037 27.2886 228.197L28.7484 227.252Z" fill="black"/>
<path fill-rule="evenodd" clip-rule="evenodd" d="M48.2193 214.362C47.9199 207.862 47.5545 202.774 47.1055 200.38L45.3966 200.7C45.8711 203.231 46.267 209.146 46.5865 216.82C46.7672 221.161 46.9228 226.042 47.0557 231.15L41.2408 225.13L39.9902 226.338L47.1202 233.719C47.2443 238.839 47.3465 244.128 47.4291 249.285C47.5811 258.759 47.6672 267.782 47.7022 274.47L49.4409 274.46C49.4062 267.838 49.3215 258.932 49.1725 249.562L54.8943 242.179L53.5199 241.114L49.1266 246.783C49.0498 242.3 48.9582 237.753 48.8502 233.338C48.7084 227.542 48.5385 221.97 48.3367 217.063L53.2389 210.683L51.8602 209.624L48.2193 214.362Z" fill="white"/>
<path fill-rule="evenodd" clip-rule="evenodd" d="M75.2226 238.823C78.5972 234.585 81.8117 231.13 84.5617 229.085L83.5242 227.689C80.277 230.104 76.5401 234.261 72.7475 239.16C70.9706 241.455 69.1724 243.925 67.3962 246.474V241.647H65.6575V249.005C63.3127 252.463 61.0301 256.01 58.9123 259.421C55.366 265.134 52.2783 270.471 50.1309 274.379L51.6547 275.216C53.7425 271.417 56.7312 266.246 60.1688 260.694L68.2321 259.749L68.0296 258.022L61.3465 258.806C63.2241 255.816 65.2132 252.751 67.2459 249.76C69.4309 246.545 71.6643 243.418 73.8621 240.561H81.7224V238.823H75.2226Z" fill="black"/>
</svg>
