<svg width="319" height="319" viewBox="0 0 319 319" fill="none" xmlns="http://www.w3.org/2000/svg">
<path d="M101.266 291.586H208.096H251.817C263.595 291.586 275.019 287.569 284.203 280.2L292.061 273.895C314.349 256.011 313.86 221.941 291.068 204.703L289.274 203.346C269.085 188.077 266.944 158.538 284.721 140.519C301.428 123.586 300.698 96.1621 283.114 80.1402L239.649 40.5354C217.365 20.2308 182.611 22.7276 163.461 46.0092C154.157 57.3204 140.561 64.2486 125.939 65.1307L99.8163 66.7064C70.4481 68.478 49.1332 95.3634 54.117 124.349C57.438 143.664 49.0757 163.216 33.6743 175.343C32.987 175.884 32.2968 176.428 31.6041 176.976C3.61418 199.106 4.40451 240.335 33.5977 260.853C39.7102 265.149 45.7155 269.47 51.2941 273.654C65.7737 284.514 83.164 291.586 101.266 291.586Z" fill="#DAF1FC"/>
<path d="M58.1276 131.268L59.9353 144.844C61.2911 149.52 66.4429 158.24 76.2043 155.705C85.9656 153.171 86.5983 144.693 85.6945 140.771L82.0792 129.458C83.7362 127.798 86.9598 122.307 86.5983 113.618C86.1464 102.757 80.7234 93.7063 73.9447 92.8012C67.166 91.8961 54.5123 93.7063 51.3489 107.735C48.8182 118.958 54.8136 128.1 58.1276 131.268Z" fill="#EFCB96"/>
<path d="M159.356 291.018C156.688 277.602 155.022 270.068 148.962 256.624L54.0605 291.018H159.356Z" fill="black"/>
<path d="M74.8479 149.822C83.5246 148.012 85.9951 140.319 86.1457 136.698C92.9244 135.341 109.555 136.065 121.847 149.822C134.139 163.58 151.071 221.023 158 248.025L151.221 255.718C149.414 258.886 139.02 267.032 111.453 280.156C89.3994 290.655 60.0853 292.073 48.1849 291.469L47.2811 288.754C40.9543 290.112 35.0794 289.207 29.6565 286.491C16.0991 279.251 12.9357 238.069 15.6472 195.982C17.8164 162.312 44.5697 146.051 57.6752 142.129C59.7841 145.447 66.1711 151.632 74.8479 149.822Z" fill="#FFF785"/>
<path d="M59.0306 128.1V137.151C55.4155 137.151 54.5113 133.983 44.5692 118.597C36.6155 106.287 45.1717 99.8914 50.444 98.232C52.8543 94.9134 60.7477 87.3709 73.0397 83.7505C88.4048 79.2251 94.2797 92.3489 87.9529 100.042C82.8915 106.197 70.1776 106.529 64.4534 105.925C63.8508 106.227 62.6457 108.098 62.6457 113.166C62.6457 119.502 63.0976 122.217 60.8381 119.502C58.5785 116.786 53.6077 113.166 53.1557 119.502C52.7942 124.57 56.9217 127.346 59.0306 128.1Z" fill="black"/>
<path d="M125.463 171.545C129.801 183.13 144.142 233.393 150.77 257.076L153.933 253.003C143.811 221.506 130.735 185.574 125.463 171.545Z" fill="black"/>
<path d="M91.5681 246.215C79.276 266.851 57.3733 283.776 47.7324 288.754V291.47H49.992C50.5945 291.922 54.963 290.293 67.6166 280.156C80.2702 270.019 88.706 252.701 91.5681 246.215Z" fill="black"/>
<path d="M87.0494 221.778L84.3379 227.208L89.7609 240.332C91.93 238.884 96.0877 237.617 97.8953 237.164C105.126 233.544 108.741 228.113 105.578 220.873C103.047 215.08 96.9915 215.442 94.28 216.347L91.5685 210.917C88.6763 205.486 85.543 207.447 84.3379 209.106C85.543 212.727 87.7724 220.33 87.0494 221.778Z" fill="#EFCB96"/>
<path d="M49.089 234.449V209.106L53.1562 230.829C65.1969 226.81 76.0641 224.7 81.4151 224.5C81.5213 224.487 81.5929 224.485 81.6268 224.493C81.5572 224.495 81.4867 224.497 81.4151 224.5C79.6329 224.718 68.0891 227.89 60.8387 231.734C52.6926 236.053 49.3903 237.466 43.666 239.427L49.089 234.449Z" fill="black"/>
<path d="M69.4238 131.268C75.2083 133.078 80.2698 130.513 82.0774 129.005L83.4332 133.983C77.2871 137.241 71.5328 133.53 69.4238 131.268Z" fill="black"/>
<path d="M307.064 128.008C307.064 138.209 298.794 146.479 288.593 146.479C278.392 146.479 270.123 138.209 270.123 128.008C270.123 117.808 278.392 109.538 288.593 109.538C298.794 109.538 307.064 117.808 307.064 128.008Z" fill="white"/>
<path fill-rule="evenodd" clip-rule="evenodd" d="M288.594 110.047C278.673 110.047 270.632 118.089 270.632 128.009C270.632 137.929 278.673 145.971 288.594 145.971C298.514 145.971 306.556 137.929 306.556 128.009C306.556 118.089 298.514 110.047 288.594 110.047ZM269.615 128.009C269.615 117.527 278.112 109.03 288.594 109.03C299.075 109.03 307.572 117.527 307.572 128.009C307.572 138.49 299.075 146.987 288.594 146.987C278.112 146.987 269.615 138.49 269.615 128.009Z" fill="black"/>
<path d="M298.116 120.87C293.932 117.352 289.999 121.188 288.96 123.545C287.92 121.188 284.182 117.352 279.998 120.87C274.735 125.296 282.35 135.238 288.316 139.707C288.699 139.993 289.22 139.993 289.603 139.707C295.582 135.238 303.38 125.296 298.116 120.87Z" fill="#FFF785"/>
<path d="M283.887 82.7951C281.264 80.6277 278.798 82.9914 278.147 84.4436C277.495 82.9914 275.152 80.6277 272.529 82.7951C269.2 85.546 274.088 91.7558 277.842 94.473C278.025 94.6053 278.268 94.6053 278.451 94.4732C282.212 91.756 287.216 85.546 283.887 82.7951Z" fill="#FFF785"/>
<path d="M296.593 244.669C278.524 244.669 262.111 276.097 256.389 291.586H267.23C284.396 276.097 314.662 244.669 296.593 244.669Z" fill="black"/>
<path d="M296.142 189.631C264.701 189.631 246.903 256.698 241.934 290.232H260.906C285.752 256.698 327.582 189.631 296.142 189.631Z" fill="white"/>
<path fill-rule="evenodd" clip-rule="evenodd" d="M243.18 289.16H260.365C272.734 272.42 289.15 247.59 298.656 226.91C303.466 216.445 306.428 207.204 306.321 200.652C306.267 197.397 305.459 194.952 303.897 193.319C302.347 191.698 299.886 190.703 296.141 190.703C288.697 190.703 281.957 194.666 275.902 201.353C269.846 208.041 264.574 217.352 260.097 227.779C251.361 248.121 245.748 272.468 243.18 289.16ZM274.31 199.916C280.59 192.98 287.865 188.56 296.141 188.56C300.257 188.56 303.366 189.66 305.449 191.838C307.521 194.004 308.408 197.06 308.467 200.617C308.582 207.688 305.429 217.31 300.606 227.804C290.928 248.86 274.209 274.079 261.769 290.87L261.447 291.304H240.689L240.872 290.075C243.365 273.251 249.075 248.005 258.124 226.934C262.647 216.402 268.03 206.851 274.31 199.916Z" fill="black"/>
<path fill-rule="evenodd" clip-rule="evenodd" d="M287.571 215.774L294.852 200.467L292.913 199.547L277.073 232.848L274.149 220.069L272.056 220.546L275.587 235.973L258.177 272.576L256.547 261.208L254.422 261.512L256.511 276.079L249.998 289.772L251.937 290.692L267.845 257.247L279.355 252.888L278.594 250.884L269.174 254.451L286.106 218.854L297.057 213.604L296.128 211.672L287.571 215.774Z" fill="black"/>
<path d="M112.363 43.962C112.363 37.9726 117.219 33.1172 123.208 33.1172H243.405C249.395 33.1172 254.25 37.9726 254.25 43.962V279.442C254.25 285.431 249.395 290.287 243.405 290.287H123.208C117.219 290.287 112.363 285.431 112.363 279.442V43.962Z" fill="white"/>
<path fill-rule="evenodd" clip-rule="evenodd" d="M111.459 43.9624C111.459 37.4739 116.719 32.2139 123.208 32.2139H243.405C249.893 32.2139 255.153 37.4739 255.153 43.9624V279.442C255.153 285.931 249.893 291.191 243.405 291.191H123.208C116.719 291.191 111.459 285.931 111.459 279.442V43.9624ZM123.208 34.0213C117.717 34.0213 113.266 38.4721 113.266 43.9624V279.442C113.266 284.933 117.717 289.384 123.208 289.384H243.405C248.895 289.384 253.346 284.933 253.346 279.442V43.9624C253.346 38.4721 248.895 34.0213 243.405 34.0213H123.208Z" fill="black"/>
<path d="M155.039 41.6346L150.496 33.1172H216.119L210.77 42.0314C209.137 44.7535 206.195 46.4191 203.021 46.4191H163.013C159.675 46.4191 156.609 44.5795 155.039 41.6346Z" fill="black"/>
<path d="M252.51 38.4377H113.199C117.811 33.8263 122.215 32.9691 123.841 33.1169H241.869C247.544 33.1169 251.328 36.6641 252.51 38.4377Z" fill="black"/>
<path d="M128.631 199.39C128.631 197.893 129.845 196.679 131.342 196.679H290.4C291.897 196.679 293.111 197.893 293.111 199.39V234.636C293.111 236.133 291.897 237.347 290.4 237.347H131.342C129.845 237.347 128.631 236.133 128.631 234.636V199.39Z" fill="white"/>
<path fill-rule="evenodd" clip-rule="evenodd" d="M127.727 199.389C127.727 197.393 129.345 195.774 131.342 195.774H290.399C292.396 195.774 294.014 197.393 294.014 199.389V234.635C294.014 236.632 292.396 238.25 290.399 238.25H131.342C129.345 238.25 127.727 236.632 127.727 234.635V199.389ZM131.342 197.582C130.343 197.582 129.534 198.391 129.534 199.389V234.635C129.534 235.633 130.343 236.443 131.342 236.443H290.399C291.397 236.443 292.207 235.633 292.207 234.635V199.389C292.207 198.391 291.397 197.582 290.399 197.582H131.342Z" fill="#DAF1FC"/>
<path d="M157.549 256.325C157.549 254.828 158.763 253.614 160.26 253.614H207.254C208.752 253.614 209.966 254.828 209.966 256.325V266.267C209.966 267.764 208.752 268.978 207.254 268.978H160.26C158.763 268.978 157.549 267.764 157.549 266.267V256.325Z" fill="black"/>
<path d="M128.631 68.3479C128.631 66.8506 129.845 65.6367 131.342 65.6367H176.529C178.026 65.6367 179.24 66.8506 179.24 68.3479C179.24 69.8453 178.026 71.0591 176.529 71.0591H131.342C129.845 71.0591 128.631 69.8453 128.631 68.3479Z" fill="#FFF785"/>
<path d="M150.401 205.687C150.724 204.987 151.72 204.987 152.043 205.687L155.09 212.293C155.221 212.579 155.492 212.775 155.804 212.812L163.028 213.669C163.794 213.76 164.102 214.706 163.536 215.23L158.194 220.169C157.964 220.383 157.86 220.701 157.922 221.009L159.339 228.144C159.49 228.901 158.685 229.486 158.012 229.109L151.663 225.556C151.389 225.402 151.055 225.402 150.781 225.556L144.432 229.109C143.76 229.486 142.954 228.901 143.105 228.144L144.522 221.009C144.584 220.701 144.48 220.383 144.25 220.169L138.908 215.23C138.342 214.706 138.65 213.76 139.416 213.669L146.64 212.812C146.952 212.775 147.223 212.579 147.354 212.293L150.401 205.687Z" fill="#FFF785"/>
<path d="M180.226 205.687C180.549 204.987 181.544 204.987 181.867 205.687L184.914 212.293C185.046 212.579 185.316 212.775 185.628 212.812L192.853 213.669C193.618 213.76 193.926 214.706 193.36 215.23L188.019 220.169C187.788 220.383 187.685 220.701 187.746 221.009L189.164 228.144C189.314 228.901 188.509 229.486 187.836 229.109L181.488 225.556C181.213 225.402 180.879 225.402 180.605 225.556L174.257 229.109C173.584 229.486 172.779 228.901 172.929 228.144L174.347 221.009C174.408 220.701 174.305 220.383 174.074 220.169L168.733 215.23C168.166 214.706 168.474 213.76 169.24 213.669L176.464 212.812C176.776 212.775 177.047 212.579 177.178 212.293L180.226 205.687Z" fill="#FFF785"/>
<path d="M210.048 205.687C210.371 204.987 211.366 204.987 211.689 205.687L214.736 212.293C214.868 212.579 215.138 212.775 215.451 212.812L222.675 213.669C223.441 213.76 223.748 214.706 223.182 215.23L217.841 220.169C217.61 220.383 217.507 220.701 217.568 221.009L218.986 228.144C219.136 228.901 218.331 229.486 217.658 229.109L211.31 225.556C211.036 225.402 210.701 225.402 210.427 225.556L204.079 229.109C203.406 229.486 202.601 228.901 202.751 228.144L204.169 221.009C204.23 220.701 204.127 220.383 203.896 220.169L198.555 215.23C197.989 214.706 198.296 213.76 199.062 213.669L206.287 212.812C206.599 212.775 206.869 212.579 207.001 212.293L210.048 205.687Z" fill="#FFF785"/>
<path d="M239.872 205.687C240.195 204.987 241.19 204.987 241.513 205.687L244.56 212.293C244.692 212.579 244.963 212.775 245.275 212.812L252.499 213.669C253.265 213.76 253.573 214.706 253.006 215.23L247.665 220.169C247.434 220.383 247.331 220.701 247.392 221.009L248.81 228.144C248.96 228.901 248.155 229.486 247.482 229.109L241.134 225.556C240.86 225.402 240.526 225.402 240.251 225.556L233.903 229.109C233.23 229.486 232.425 228.901 232.575 228.144L233.993 221.009C234.054 220.701 233.951 220.383 233.72 220.169L228.379 215.23C227.813 214.706 228.12 213.76 228.886 213.669L236.111 212.812C236.423 212.775 236.693 212.579 236.825 212.293L239.872 205.687Z" fill="#FFF785"/>
<path d="M269.694 205.687C270.017 204.987 271.013 204.987 271.336 205.687L274.383 212.293C274.514 212.579 274.785 212.775 275.097 212.812L282.321 213.669C283.087 213.76 283.395 214.706 282.829 215.23L277.487 220.169C277.257 220.383 277.153 220.701 277.215 221.009L278.632 228.144C278.783 228.901 277.978 229.486 277.305 229.109L270.956 225.556C270.682 225.402 270.348 225.402 270.074 225.556L263.725 229.109C263.052 229.486 262.247 228.901 262.398 228.144L263.815 221.009C263.877 220.701 263.773 220.383 263.543 220.169L258.201 215.23C257.635 214.706 257.943 213.76 258.709 213.669L265.933 212.812C266.245 212.775 266.516 212.579 266.647 212.293L269.694 205.687Z" fill="#FFF785"/>
<path fill-rule="evenodd" clip-rule="evenodd" d="M244.309 45.7549V52.9848H242.502V45.7549H244.309Z" fill="black"/>
<path fill-rule="evenodd" clip-rule="evenodd" d="M239.79 46.6582V52.9844H237.982V46.6582H239.79Z" fill="black"/>
<path fill-rule="evenodd" clip-rule="evenodd" d="M235.27 48.4658V52.9845H233.463V48.4658H235.27Z" fill="black"/>
<path fill-rule="evenodd" clip-rule="evenodd" d="M230.753 50.2734V52.9846H228.945V50.2734H230.753Z" fill="black"/>
<path d="M129.533 184.478C129.533 183.729 130.14 183.122 130.889 183.122H156.193C156.942 183.122 157.549 183.729 157.549 184.478C157.549 185.226 156.942 185.833 156.193 185.833H130.889C130.14 185.833 129.533 185.226 129.533 184.478Z" fill="#DAF1FC"/>
<path d="M252.442 285.245H114.17C118.962 289.93 121.732 290.802 123.421 290.651H243.19C249.088 290.651 251.213 287.047 252.442 285.245Z" fill="black"/>
<path d="M138 92.768C138 91.2393 139.302 90 140.909 90H227.091C228.698 90 230 91.2393 230 92.768V165.232C230 166.761 228.698 168 227.091 168H140.909C139.302 168 138 166.761 138 165.232V92.768Z" fill="white"/>
<path fill-rule="evenodd" clip-rule="evenodd" d="M138 93.1494C138 91.41 139.484 90 141.314 90H226.686C228.516 90 230 91.41 230 93.1494V164.851C230 166.59 228.516 168 226.686 168H141.314C139.484 168 138 166.59 138 164.851V93.1494ZM141.314 90.8211C139.961 90.8211 138.864 91.8635 138.864 93.1494V164.851C138.864 166.136 139.961 167.179 141.314 167.179H226.686C228.039 167.179 229.136 166.136 229.136 164.851V93.1494C229.136 91.8635 228.039 90.8211 226.686 90.8211H141.314Z" fill="black"/>
<path d="M145.342 96.413C145.342 95.6973 145.922 95.1172 146.638 95.1172H168.234C168.949 95.1172 169.53 95.6973 169.53 96.413C169.53 97.1286 168.949 97.7087 168.234 97.7087H146.638C145.922 97.7087 145.342 97.1286 145.342 96.413Z" fill="#FFF785"/>
<path d="M142.32 148.028C142.32 147.67 142.61 147.38 142.968 147.38H225.034C225.392 147.38 225.682 147.67 225.682 148.028C225.682 148.386 225.392 148.676 225.034 148.676H142.968C142.61 148.676 142.32 148.386 142.32 148.028Z" fill="#DAF1FC"/>
<path d="M142.32 151.484C142.32 151.126 142.61 150.836 142.968 150.836H225.034C225.392 150.836 225.682 151.126 225.682 151.484C225.682 151.842 225.392 152.132 225.034 152.132H142.968C142.61 152.132 142.32 151.842 142.32 151.484Z" fill="#DAF1FC"/>
<path d="M142.32 151.484C142.32 151.126 142.61 150.836 142.968 150.836H190.912C191.27 150.836 191.56 151.126 191.56 151.484C191.56 151.842 191.27 152.132 190.912 152.132H142.968C142.61 152.132 142.32 151.842 142.32 151.484Z" fill="#FFF785"/>
<path d="M192.856 151.483C192.856 152.318 192.179 152.995 191.344 152.995C190.509 152.995 189.832 152.318 189.832 151.483C189.832 150.649 190.509 149.972 191.344 149.972C192.179 149.972 192.856 150.649 192.856 151.483Z" fill="black"/>
<path d="M154.414 157.098L150.851 159.156L150.851 155.041L154.414 157.098Z" fill="black"/>
<path fill-rule="evenodd" clip-rule="evenodd" d="M160.135 156.6V155.155H160.999V157.098V159.042H160.135V157.597L157.436 159.156V155.041L160.135 156.6Z" fill="black"/>
<path fill-rule="evenodd" clip-rule="evenodd" d="M144.912 156.6V155.155H144.048V157.098V159.042H144.912V157.597L147.611 159.156V155.041L144.912 156.6Z" fill="black"/>
<path fill-rule="evenodd" clip-rule="evenodd" d="M217.042 156.019H212.723L212.723 158.61H217.042V156.019ZM212.723 155.587C212.484 155.587 212.291 155.78 212.291 156.019V158.61C212.291 158.849 212.484 159.042 212.723 159.042H217.042C217.281 159.042 217.474 158.849 217.474 158.61V156.019C217.474 155.78 217.281 155.587 217.042 155.587H212.723Z" fill="#DAF1FC"/>
<path fill-rule="evenodd" clip-rule="evenodd" d="M225.681 156.019H221.362L221.362 158.61H225.681V156.019ZM221.362 155.587C221.123 155.587 220.93 155.78 220.93 156.019V158.61C220.93 158.849 221.123 159.042 221.362 159.042H225.681C225.919 159.042 226.113 158.849 226.113 158.61V156.019C226.113 155.78 225.919 155.587 225.681 155.587H221.362Z" fill="#DAF1FC"/>
<path d="M208.835 157.315C208.835 158.508 207.868 159.475 206.675 159.475C205.483 159.475 204.516 158.508 204.516 157.315C204.516 156.122 205.483 155.155 206.675 155.155C207.868 155.155 208.835 156.122 208.835 157.315Z" fill="#DAF1FC"/>
<path d="M198.47 124.056C198.47 131.928 192.088 138.31 184.216 138.31C176.344 138.31 169.963 131.928 169.963 124.056C169.963 116.184 176.344 109.803 184.216 109.803C192.088 109.803 198.47 116.184 198.47 124.056Z" fill="#DAF1FC"/>
<path d="M166.506 157.597V156.279C166.506 156.09 166.63 155.922 166.811 155.866L168.428 155.369C168.647 155.301 168.882 155.416 168.952 155.635C169.292 156.699 169.244 157.36 168.954 158.243C168.882 158.46 168.647 158.575 168.428 158.508L166.811 158.01C166.63 157.954 166.506 157.787 166.506 157.597Z" fill="#DAF1FC"/>
<path fill-rule="evenodd" clip-rule="evenodd" d="M170.062 158.983C169.886 158.895 169.816 158.682 169.891 158.5C170.352 157.382 170.352 156.192 169.914 155.208C169.834 155.029 169.891 154.812 170.062 154.715C170.232 154.617 170.451 154.676 170.534 154.854C171.096 156.061 171.086 157.502 170.529 158.819C170.452 159 170.237 159.071 170.062 158.983Z" fill="#DAF1FC"/>
<path fill-rule="evenodd" clip-rule="evenodd" d="M171.84 156.906C171.856 156.19 171.699 155.443 171.3 154.475C171.225 154.293 171.306 154.083 171.485 154.003C171.665 153.924 171.875 154.004 171.951 154.186C172.379 155.221 172.571 156.074 172.551 156.922C172.531 157.757 172.307 158.56 171.946 159.497C171.875 159.68 171.667 159.768 171.485 159.694C171.303 159.621 171.216 159.414 171.286 159.23C171.632 158.33 171.823 157.62 171.84 156.906Z" fill="#DAF1FC"/>
<path d="M192.854 123.84L180.22 131.134L180.22 116.546L192.854 123.84Z" fill="#FFF785"/>
</svg>
