<svg width="429" height="380" viewBox="0 0 429 380" fill="none" xmlns="http://www.w3.org/2000/svg">
<path d="M132.517 158.246C127.552 202.925 120.38 208.993 91.1395 243.192C75.9185 260.994 80.4277 288.013 89.4377 310.543C97.2576 330.097 117.713 340.273 138.766 340.273H305.169C321.145 340.273 379.899 294.135 391.268 282.907C436.508 238.228 410.577 148.317 378.578 130.666C346.579 113.015 310.167 146.662 252.789 94.8121C195.412 42.9619 137.115 116.876 132.517 158.246Z" fill="#4DBDF5" fill-opacity="0.2"/>
<path d="M303.948 105.725C286.891 100.786 272.527 87.2026 267.477 81.0284C259.06 63.6285 299.46 73.7317 312.365 81.0284C325.27 88.3251 342.664 90.5703 339.298 98.4283C335.931 106.286 325.27 111.899 303.948 105.725Z" fill="#4DBDF5" fill-opacity="0.2"/>
<path d="M258.512 340.276H200.466C184.309 334.293 162.766 327.113 168.151 313.352C173.537 299.591 200.466 318.139 207.647 304.976C214.828 291.813 156.781 290.018 162.766 273.265C168.75 256.512 205.253 278.052 200.466 261.897C195.678 245.743 154.986 251.726 156.781 234.973C158.577 218.22 189.096 245.743 192.686 226.596C196.277 207.45 163.364 173.346 189.096 167.363C214.828 161.38 207.647 223.605 216.623 226.596C225.599 229.588 233.977 197.279 246.544 211.638C259.11 225.998 237.567 258.307 246.544 273.265C255.52 288.223 268.087 232.58 282.449 258.307C293.938 278.889 271.278 321.529 258.512 340.276Z" fill="white"/>
<path d="M324.162 194.527L329.571 205.921L330.561 219.077C324.86 221.376 313.229 226.034 312.316 226.272C311.402 226.51 303.215 222.547 299.236 220.536L297.899 201.373C287.474 200.676 280.634 187.378 278.517 180.817C269.09 154.007 286.467 145.82 289.892 144.927C293.318 144.034 315.013 138.378 323.821 160.471C330.867 178.146 326.984 190.54 324.162 194.527Z" fill="#EFCB96"/>
<path d="M382.531 339.543H289.9L172.488 338.953C165.148 334.165 163.148 326.411 163.17 319.884C163.187 314.7 166.917 310.531 171.587 308.28C190.597 299.117 219.622 284.854 224.999 281.132C232.669 275.822 239.749 246.912 253.909 224.491C265.237 206.555 286.556 202.464 295.21 202.661C295.996 206.201 299.34 213.281 311.14 213.281C322.94 213.281 327.857 206.201 329.43 202.661C335.527 202.661 352.441 205.965 366.601 219.181C384.289 235.69 391.96 273.409 399.036 308.2L399.051 308.272C404.715 336.121 390.398 340.329 382.531 339.543Z" fill="#FFF785"/>
<path d="M343 294.113L334.15 258.122L335.92 294.113L295.426 303.989C290.376 305.221 285.661 308.358 284.666 313.46C282.832 322.856 286.336 332.901 290.49 336.593C286.95 331.528 286.95 312.403 291.08 309.453C294.384 307.093 335.33 299.423 355.391 295.883L343 294.113Z" fill="black"/>
<path d="M255.09 248.682L233.26 339.543H223.819L255.09 248.682Z" fill="black"/>
<path d="M314.907 184.746C320.644 197.396 324.246 197.961 325.33 196.662C338.637 182.218 329.693 149.485 316.901 140.936C305.088 133.04 299.278 138.822 279.247 139.166C259.216 139.51 255.019 149.14 261.123 158.524C269.911 172.032 283.463 160.017 287.906 160.688C292.349 161.359 298.678 164.587 303.343 173.127C308.007 181.667 308.703 179.656 309.076 174.071C309.45 168.486 312.082 159.874 317.889 168.116C322.534 174.709 317.837 181.95 314.907 184.746Z" fill="black"/>
<path d="M249.191 339.542C249.191 323.494 272.988 318.695 284.592 318.302C284.592 326.326 289.508 335.805 292.262 339.542H249.191Z" fill="#EFCB96"/>
<path d="M134.513 338.459C134.513 324.194 153.371 321.162 163.544 320.812C163.544 327.945 169.86 335.137 172.273 338.459H134.513Z" fill="#EFCB96"/>
<path fill-rule="evenodd" clip-rule="evenodd" d="M400.311 318.169C400.61 329.591 396.625 339.543 384.411 339.543H373.678C376.51 320.662 391.491 309.255 398.571 305.912C398.571 305.914 398.572 305.916 398.572 305.918C398.727 306.68 398.882 307.441 399.036 308.2L399.051 308.272C399.799 311.95 400.199 315.237 400.311 318.169Z" fill="black"/>
<path d="M308.812 198.343C303.957 201.502 300.004 201.428 297.965 201.171L298.335 209.61C305.194 206.876 307.865 200.759 308.812 198.343Z" fill="black"/>
<path d="M154.958 281.618C155.153 280.367 156.324 279.511 157.575 279.706C158.825 279.901 159.681 281.072 159.487 282.323L150.851 337.8C150.656 339.05 149.485 339.906 148.234 339.712C146.983 339.517 146.127 338.345 146.322 337.095L154.958 281.618Z" fill="black"/>
<path d="M144.822 333.207C145.251 327.634 154.403 325.971 159.803 325.779C160.397 325.758 160.885 326.227 160.912 326.82L161.384 337.202C161.413 337.835 160.907 338.364 160.274 338.368C152.096 338.422 144.385 338.897 144.822 333.207Z" fill="#EFCB96"/>
<path d="M67.8516 75.4885C67.8516 71.3948 71.1702 68.0762 75.2639 68.0762H211.008C215.102 68.0762 218.42 71.3948 218.42 75.4885V249.492C218.42 253.586 215.102 256.904 211.008 256.904H75.2639C71.1702 256.904 67.8516 253.586 67.8516 249.492V75.4885Z" fill="white"/>
<path fill-rule="evenodd" clip-rule="evenodd" d="M66.7402 75.4882C66.7402 70.7809 70.5563 66.9648 75.2636 66.9648H211.008C215.715 66.9648 219.531 70.7809 219.531 75.4882V249.492C219.531 254.199 215.715 258.015 211.008 258.015H75.2636C70.5563 258.015 66.7402 254.199 66.7402 249.492V75.4882ZM75.2636 69.1869C71.7835 69.1869 68.9623 72.0081 68.9623 75.4882V249.492C68.9623 252.972 71.7835 255.793 75.2636 255.793H211.008C214.488 255.793 217.309 252.972 217.309 249.492V75.4882C217.309 72.0081 214.488 69.1869 211.008 69.1869H75.2636Z" fill="black"/>
<path d="M67.8516 75.4885C67.8516 71.3948 71.1702 68.0762 75.2639 68.0762H211.008C215.102 68.0762 218.42 71.3948 218.42 75.4885V93.9937H67.8516V75.4885Z" fill="black"/>
<path d="M91.3009 81.0342C91.3009 84.1015 88.8144 86.588 85.7471 86.588C82.6799 86.588 80.1934 84.1015 80.1934 81.0342C80.1934 77.967 82.6799 75.4805 85.7471 75.4805C88.8144 75.4805 91.3009 77.967 91.3009 81.0342Z" fill="white"/>
<path d="M109.815 81.0342C109.815 84.1015 107.328 86.588 104.261 86.588C101.194 86.588 98.707 84.1015 98.707 81.0342C98.707 77.967 101.194 75.4805 104.261 75.4805C107.328 75.4805 109.815 77.967 109.815 81.0342Z" fill="white"/>
<path d="M128.326 81.0342C128.326 84.1015 125.84 86.588 122.773 86.588C119.705 86.588 117.219 84.1015 117.219 81.0342C117.219 77.967 119.705 75.4805 122.773 75.4805C125.84 75.4805 128.326 77.967 128.326 81.0342Z" fill="white"/>
<path fill-rule="evenodd" clip-rule="evenodd" d="M195.038 119.603H132.018V117.381H195.038V119.603Z" fill="#4DBDF5" fill-opacity="0.2"/>
<path fill-rule="evenodd" clip-rule="evenodd" d="M195.038 167.727H132.018V165.505H195.038V167.727Z" fill="#4DBDF5" fill-opacity="0.2"/>
<path fill-rule="evenodd" clip-rule="evenodd" d="M195.038 219.288H132.018V217.066H195.038V219.288Z" fill="#4DBDF5" fill-opacity="0.2"/>
<path fill-rule="evenodd" clip-rule="evenodd" d="M195.038 133.353H132.018V131.131H195.038V133.353Z" fill="#4DBDF5" fill-opacity="0.2"/>
<path fill-rule="evenodd" clip-rule="evenodd" d="M195.038 181.477H132.018V179.255H195.038V181.477Z" fill="#4DBDF5" fill-opacity="0.2"/>
<path fill-rule="evenodd" clip-rule="evenodd" d="M195.038 233.038H132.018V230.816H195.038V233.038Z" fill="#4DBDF5" fill-opacity="0.2"/>
<path d="M89.6211 117.884C89.6211 113.79 92.9397 110.472 97.0334 110.472H110.854C114.948 110.472 118.267 113.79 118.267 117.884V131.705C118.267 135.799 114.948 139.117 110.854 139.117H97.0334C92.9397 139.117 89.6211 135.799 89.6211 131.705V117.884Z" fill="#FFF785"/>
<path fill-rule="evenodd" clip-rule="evenodd" d="M88.1387 168.299C88.1387 163.387 92.121 159.404 97.0335 159.404H110.854C115.767 159.404 119.749 163.387 119.749 168.299V182.12C119.749 187.032 115.767 191.015 110.854 191.015H97.0335C92.121 191.015 88.1387 187.032 88.1387 182.12V168.299ZM97.0335 162.369C93.7585 162.369 91.1036 165.024 91.1036 168.299V182.12C91.1036 185.395 93.7585 188.05 97.0335 188.05H110.854C114.129 188.05 116.784 185.395 116.784 182.12V168.299C116.784 165.024 114.129 162.369 110.854 162.369H97.0335Z" fill="#FFF785"/>
<path fill-rule="evenodd" clip-rule="evenodd" d="M88.1387 218.715C88.1387 213.803 92.121 209.82 97.0335 209.82H110.854C115.767 209.82 119.749 213.803 119.749 218.715V232.536C119.749 237.448 115.767 241.431 110.854 241.431H97.0335C92.121 241.431 88.1387 237.448 88.1387 232.536V218.715ZM97.0335 212.785C93.7585 212.785 91.1036 215.44 91.1036 218.715V232.536C91.1036 235.811 93.7585 238.466 97.0335 238.466H110.854C114.129 238.466 116.784 235.811 116.784 232.536V218.715C116.784 215.44 114.129 212.785 110.854 212.785H97.0335Z" fill="#FFF785"/>
<path fill-rule="evenodd" clip-rule="evenodd" d="M115.709 119.744L99.9357 133.545L92.707 123.425L96.3233 120.842L100.701 126.971L112.782 116.399L115.709 119.744Z" fill="white"/>
<path d="M58.2344 330.722C58.2344 329.018 56.8526 327.637 55.1481 327.637H16.4946C14.7901 327.637 13.4083 329.018 13.4083 330.722V337.19C13.4083 338.893 14.7901 340.275 16.4946 340.275H55.1481C56.8526 340.275 58.2344 338.893 58.2344 337.19V330.722Z" fill="#FFF785"/>
<path d="M85.9304 262.064C89.486 263.429 93.4753 261.655 94.8408 258.101C96.2063 254.547 94.4309 250.559 90.8754 249.194C87.3198 247.829 83.3305 249.604 81.965 253.158C80.5995 256.712 82.3749 260.699 85.9304 262.064Z" fill="#FFF785"/>
<path fill-rule="evenodd" clip-rule="evenodd" d="M38.6859 260.561C34.2108 273.915 33.6212 295.911 34.794 328.248L36.8502 328.174C35.6745 295.755 36.3018 274.151 40.6369 261.214C42.7916 254.784 45.8202 250.63 49.8788 248.312C53.9484 245.988 59.2339 245.406 66.1184 246.506L66.4434 244.475C59.3155 243.336 53.4938 243.879 48.858 246.527C44.2113 249.181 40.9364 253.845 38.6859 260.561Z" fill="black"/>
<path d="M68.8563 235.007C66.409 234.537 63.9765 235.887 63.083 238.213L57.9295 251.626C57.0361 253.951 57.9387 256.582 60.0718 257.87L81.2132 270.635C82.858 271.628 85.0011 270.894 85.6901 269.101L95.4092 243.805C96.0982 242.011 94.9979 240.032 93.1109 239.669L68.8563 235.007Z" fill="white"/>
<path fill-rule="evenodd" clip-rule="evenodd" d="M69.0502 233.997C66.1135 233.433 63.1944 235.054 62.1223 237.844L56.9688 251.257C55.8966 254.047 56.9798 257.205 59.5396 258.75L80.6809 271.515C82.874 272.839 85.7315 271.86 86.6501 269.469L96.3692 244.173C97.2878 241.782 95.8209 239.143 93.3048 238.659L69.0502 233.997ZM64.043 238.581C64.7578 236.721 66.7039 235.64 68.6616 236.017L92.9163 240.679C94.1743 240.92 94.9078 242.24 94.4485 243.436L84.7293 268.732C84.2701 269.927 82.8413 270.417 81.7448 269.755L60.6034 256.99C58.8969 255.96 58.1748 253.855 58.8896 251.994L64.043 238.581Z" fill="black"/>
<path d="M63.4004 321.149C63.4004 320.536 63.8978 320.038 64.5114 320.038H141.351C141.964 320.038 142.462 320.536 142.462 321.149V338.406C142.462 339.02 141.964 339.517 141.351 339.517H64.5114C63.8978 339.517 63.4004 339.02 63.4004 338.406V321.149Z" fill="white"/>
<path fill-rule="evenodd" clip-rule="evenodd" d="M62.2891 321.149C62.2891 319.922 63.2839 318.927 64.5111 318.927H141.351C142.578 318.927 143.573 319.922 143.573 321.149V338.406C143.573 339.633 142.578 340.628 141.351 340.628H64.5111C63.2839 340.628 62.2891 339.633 62.2891 338.406V321.149ZM141.351 321.149H64.5111V338.406H141.351V321.149Z" fill="black"/>
<path d="M77.1504 300.524C77.1504 299.911 77.6478 299.413 78.2614 299.413H155.101C155.714 299.413 156.212 299.911 156.212 300.524V317.781C156.212 318.395 155.714 318.892 155.101 318.892H78.2614C77.6478 318.892 77.1504 318.395 77.1504 317.781V300.524Z" fill="#FFF785"/>
<path d="M66.8359 292.504C66.8359 291.89 67.3334 291.393 67.947 291.393H144.786C145.4 291.393 145.897 291.89 145.897 292.504V298.302C145.897 298.916 145.4 299.413 144.786 299.413H67.947C67.3334 299.413 66.8359 298.916 66.8359 298.302V292.504Z" fill="white"/>
<path fill-rule="evenodd" clip-rule="evenodd" d="M65.7266 292.503C65.7266 291.276 66.7214 290.281 67.9486 290.281H144.788C146.015 290.281 147.01 291.276 147.01 292.503V298.302C147.01 299.529 146.015 300.524 144.788 300.524H67.9486C66.7214 300.524 65.7266 299.529 65.7266 298.302V292.503ZM144.788 292.503L67.9486 292.503V298.302H144.788V292.503Z" fill="black"/>
<path d="M309.827 40.0843L311.867 34.3721C312.23 33.3548 313.685 33.4019 313.982 34.4406L315.609 40.136C315.707 40.4806 315.966 40.7566 316.304 40.8771L322.408 43.0573C323.391 43.4084 323.391 44.7988 322.408 45.1499L316.238 47.3536C315.938 47.4607 315.698 47.6915 315.58 47.9873L312.906 54.6706C312.509 55.6632 311.077 55.5772 310.801 54.5442L309.062 48.0233C308.978 47.7056 308.757 47.4418 308.459 47.3027L301.806 44.1979C300.827 43.7413 301.009 42.2982 302.071 42.0992L308.986 40.8026C309.374 40.7298 309.694 40.4563 309.827 40.0843Z" fill="#FFF785"/>
<path d="M362.716 93.0549L364.104 91.6722C364.869 90.9097 366.162 91.5771 365.984 92.6425L365.67 94.5175C365.611 94.871 365.726 95.2313 365.979 95.4852L367.656 97.1677C368.393 97.9071 367.795 99.1626 366.757 99.0573L364.324 98.8106C364.007 98.7784 363.691 98.8839 363.457 99.1001L361.449 100.957C360.664 101.683 359.407 100.99 359.602 99.9384L360.051 97.5195C360.111 97.1962 360.025 96.863 359.816 96.6095L358.053 94.4739C357.365 93.6411 358.15 92.4163 359.194 92.6926L361.648 93.342C362.03 93.4431 362.436 93.3338 362.716 93.0549Z" fill="#FFF785"/>
</svg>
