<svg width="319" height="319" viewBox="0 0 319 319" fill="none" xmlns="http://www.w3.org/2000/svg">
<path d="M255.746 117.484C260.064 156.248 266.3 161.513 291.725 191.184C309.239 211.624 296.711 246.066 284.827 266.955C281.745 272.372 275.843 275.414 269.603 275.414H105.621C91.73 275.414 40.6421 235.383 30.7568 225.642C-8.58038 186.877 13.9666 108.869 41.7904 93.5547C69.6143 78.2402 101.276 107.433 151.167 62.4471C201.058 17.4608 251.749 81.5902 255.746 117.484Z" fill="#4DBDF5" fill-opacity="0.2"/>
<path d="M93.3035 76.5789C107.076 76.8337 116.799 68.6148 119.939 64.4735C120.805 62.4559 121.823 57.9748 118.965 56.1909C115.392 53.9609 105.322 61.6064 93.3035 58.4208C81.285 55.2352 78.3614 61.2879 68.9415 70.8448C59.5215 80.4016 76.0877 76.2603 93.3035 76.5789Z" fill="#4DBDF5" fill-opacity="0.2"/>
<path d="M99.7852 275.414H149.06C162.776 270.378 181.064 264.336 176.492 252.754C171.92 241.172 149.06 256.782 142.964 245.704C136.868 234.625 186.143 233.115 181.064 219.015C175.984 204.915 144.996 223.043 149.06 209.447C153.124 195.851 187.667 200.887 186.143 186.787C184.619 172.687 158.712 195.851 155.664 179.737C152.616 163.623 180.556 134.92 158.712 129.884C136.868 124.848 142.964 177.219 135.344 179.737C127.725 182.255 120.613 155.062 109.945 167.148C99.2773 179.233 117.565 206.426 109.945 219.015C102.325 231.604 91.6574 184.772 79.4657 206.426C69.7123 223.748 88.9481 259.636 99.7852 275.414Z" fill="white"/>
<path d="M243.827 187.482C242.119 229.16 255.241 260.414 263.241 272.798C263.969 273.926 265.232 274.557 266.579 274.557H269.181C271.482 274.557 273.346 272.666 273.31 270.378C272.413 214.519 258.388 191.415 248.486 184.671C246.371 183.231 243.932 184.934 243.827 187.482Z" fill="white"/>
<path fill-rule="evenodd" clip-rule="evenodd" d="M245.867 185.304C245.233 185.707 244.73 186.504 244.689 187.517C242.988 229.012 256.058 260.092 263.966 272.334C264.523 273.196 265.5 273.699 266.579 273.699H269.18C270.998 273.699 272.476 272.202 272.447 270.391C271.999 242.526 268.278 222.883 263.462 209.393C258.64 195.89 252.745 188.612 247.998 185.379C247.238 184.861 246.474 184.918 245.867 185.304ZM244.938 183.858C246.105 183.115 247.619 183.041 248.973 183.963C254.128 187.474 260.197 195.12 265.087 208.819C269.983 222.532 273.722 242.37 274.172 270.364C274.216 273.13 271.964 275.415 269.18 275.415H266.579C264.962 275.415 263.414 274.655 262.514 273.262C254.422 260.735 241.249 229.308 242.965 187.447C243.028 185.912 243.797 184.583 244.938 183.858Z" fill="black"/>
<path d="M303.547 209.537C281.14 224.675 270.629 253.448 267.343 270.27C266.863 272.723 268.802 274.912 271.314 274.912H274.657C275.656 274.912 276.625 274.557 277.366 273.891C296.605 256.581 305.742 229.655 308.953 213.165C309.578 209.954 306.267 207.699 303.547 209.537Z" fill="black"/>
<path fill-rule="evenodd" clip-rule="evenodd" d="M250.98 193.709C253.306 200.761 255.41 207.677 257.302 214.332C258.834 219.72 260.228 224.938 261.487 229.917L263.991 223.825L265.589 224.475L262.193 232.736C264.407 241.682 266.176 249.787 267.533 256.642C269.104 264.578 270.124 270.844 270.641 274.802L268.93 275.023C268.428 271.178 267.44 265.093 265.919 257.372L258.315 253.304L259.133 251.792L265.483 255.19C264.168 248.681 262.499 241.135 260.45 232.875C259.059 227.263 257.492 221.321 255.742 215.152L247.973 211.064L248.779 209.547L255.088 212.867C253.348 206.83 251.434 200.592 249.34 194.244L250.98 193.709Z" fill="black"/>
<path fill-rule="evenodd" clip-rule="evenodd" d="M297.035 228.021C299.372 224.265 301.614 220.93 303.652 218.282L302.283 217.238C299.852 220.395 297.163 224.474 294.393 229.03C291.793 233.307 289.113 238.018 286.501 242.805L285.987 235.802L284.266 235.927L284.978 245.618C281.926 251.298 279.004 256.991 276.454 262.106C274.049 266.931 271.973 271.244 270.428 274.55L271.992 275.274C273.5 272.048 275.517 267.855 277.855 263.16L285.451 260.088L284.801 258.498L279.017 260.837C281.343 256.213 283.931 251.202 286.617 246.209C289.6 240.664 292.701 235.145 295.696 230.204L301.427 228.523L300.939 226.876L297.035 228.021Z" fill="white"/>
<path d="M72.869 151.809L70.8796 162.254L72.869 173.196C78.0083 173.859 88.4859 175.185 89.2817 175.185C90.0774 175.185 95.913 170.211 98.7314 167.725L95.7472 151.809C104.103 149.024 106.855 136.723 107.186 130.921C109.176 107.048 93.2605 104.063 90.2764 104.063C87.2922 104.063 68.3928 104.063 65.9061 123.958C63.9167 139.873 69.7191 149.157 72.869 151.809Z" fill="#EFCB96"/>
<path d="M24.6249 275.153H102.709L201.683 274.656C207.807 270.662 209.521 264.218 209.537 258.752C209.551 254.274 206.323 250.671 202.289 248.726C186.262 241 161.936 229.043 157.418 225.915C150.953 221.439 144.984 197.069 133.048 178.169C123.499 163.05 105.528 159.602 98.2332 159.767C97.57 162.751 94.7517 168.72 84.8046 168.72C74.8576 168.72 70.7129 162.751 69.3867 159.767C64.2474 159.767 49.9899 162.553 38.0534 173.693C23.1432 187.609 16.6762 219.405 10.7114 248.732L10.699 248.794C5.92437 272.269 17.9935 275.816 24.6249 275.153Z" fill="#FFF785"/>
<path d="M57.9483 236.858L65.4086 206.52L63.9166 236.858L97.8877 245.144C102.25 246.208 106.329 248.92 107.154 253.333C108.626 261.206 105.69 269.577 102.213 272.668C105.197 268.397 105.197 252.276 101.715 249.789C98.9302 247.8 64.4139 241.334 47.5039 238.35L57.9483 236.858Z" fill="black"/>
<path d="M132.055 198.562L150.457 275.154H158.414L132.055 198.562Z" fill="black"/>
<path d="M78.3385 141.863C76.3491 153.401 73.5307 154.628 72.3702 153.799C58.4443 144.847 58.7803 116.244 67.3967 106.551C75.3544 97.5984 81.3226 101.08 97.7353 97.1011C114.148 93.1223 119.619 100.085 116.635 109.038C112.339 121.925 98.73 115.006 95.2485 116.498C91.767 117.99 87.2908 121.969 85.3014 129.926C83.312 137.884 82.3173 136.392 80.8252 131.916C79.3332 127.44 75.3544 120.974 72.3702 128.932C69.9829 135.298 75.3544 140.205 78.3385 141.863Z" fill="black"/>
<path d="M137.027 275.154C137.027 261.626 116.968 257.581 107.186 257.249C107.186 264.013 103.042 272.004 100.721 275.154H137.027Z" fill="#EFCB96"/>
<path d="M233.694 274.24C233.694 262.215 217.798 259.66 209.222 259.365C209.222 265.378 203.898 271.44 201.863 274.24H233.694Z" fill="#EFCB96"/>
<path fill-rule="evenodd" clip-rule="evenodd" d="M9.63445 257.201C9.39929 266.803 12.7661 275.154 23.0393 275.154H32.0866C29.6993 259.239 17.0717 249.623 11.1033 246.805C10.9722 247.448 10.8415 248.091 10.711 248.733L10.6986 248.794C10.0624 251.922 9.72528 254.713 9.63445 257.201Z" fill="black"/>
<path d="M86.2008 151.659C90.8329 153.203 94.0422 152.303 95.6505 151.659L97.1426 158.622C90.9665 157.85 87.4875 153.428 86.2008 151.659Z" fill="black"/>
<path d="M186.048 202.358L159.258 263.193C157.913 266.247 160.15 269.676 163.487 269.676H245.234C247.111 269.676 248.802 268.54 249.511 266.801L274.348 205.967C275.588 202.927 273.353 199.6 270.07 199.6H190.277C188.445 199.6 186.786 200.682 186.048 202.358Z" fill="white"/>
<path fill-rule="evenodd" clip-rule="evenodd" d="M190.276 200.559C188.825 200.559 187.511 201.416 186.926 202.744L160.136 263.579C159.071 265.999 160.843 268.716 163.487 268.716H245.233C246.721 268.716 248.06 267.815 248.623 266.438L273.459 205.604C274.442 203.196 272.671 200.559 270.07 200.559H190.276ZM185.169 201.971C186.061 199.946 188.064 198.64 190.276 198.64H270.07C274.034 198.64 276.734 202.658 275.236 206.329L250.4 267.164C249.543 269.263 247.501 270.635 245.233 270.635H163.487C159.457 270.635 156.756 266.494 158.38 262.806L185.169 201.971Z" fill="black"/>
<path d="M211.016 229.77C212.519 226.286 215.95 224.029 219.744 224.029C226.577 224.029 231.177 231.023 228.471 237.298L227.797 238.861C226.295 242.345 222.864 244.602 219.07 244.602C212.237 244.602 207.636 237.608 210.342 231.334L211.016 229.77Z" fill="#FFF785"/>
<path d="M243.949 275.461H102.077C99.7694 275.461 97.8984 273.59 97.8984 271.282C97.8984 268.974 99.7694 267.104 102.077 267.104H243.949C246.944 267.104 248.966 270.16 247.796 272.916C247.14 274.459 245.626 275.461 243.949 275.461Z" fill="black"/>
<path d="M186.037 81.5973C186.037 79.3717 187.837 77.5674 190.057 77.5674H265.821C268.041 77.5674 269.841 79.3717 269.841 81.5973V122.788C269.841 125.014 268.041 126.818 265.821 126.818H190.057C187.837 126.818 186.037 125.014 186.037 122.788V81.5973Z" fill="white"/>
<path fill-rule="evenodd" clip-rule="evenodd" d="M185.232 81.5967C185.232 78.9259 187.392 76.7607 190.056 76.7607H265.82C268.484 76.7607 270.644 78.9259 270.644 81.5967V122.788C270.644 125.458 268.484 127.624 265.82 127.624H190.056C187.392 127.624 185.232 125.458 185.232 122.788V81.5967ZM190.056 78.3727C188.28 78.3727 186.84 79.8162 186.84 81.5967V122.788C186.84 124.568 188.28 126.012 190.056 126.012H265.82C267.596 126.012 269.036 124.568 269.036 122.788V81.5967C269.036 79.8162 267.596 78.3727 265.82 78.3727H190.056Z" fill="black"/>
<path d="M244.54 100.238L224.182 117.547V122.498C224.182 124.724 225.981 126.528 228.201 126.528H265.82C268.04 126.528 269.84 124.724 269.84 122.498V115.66L249.583 100.111C248.082 98.9589 245.982 99.0115 244.54 100.238Z" fill="black"/>
<path d="M233.918 92.8769C233.918 95.8924 231.479 98.3369 228.472 98.3369C225.464 98.3369 223.025 95.8924 223.025 92.8769C223.025 89.8615 225.464 87.417 228.472 87.417C231.479 87.417 233.918 89.8615 233.918 92.8769Z" fill="#FFF785"/>
<path d="M206.675 100.219L186.037 117.547L186.037 122.787C186.037 125.013 187.837 126.817 190.057 126.817H246.144L211.715 100.121C210.22 98.9618 208.123 99.0027 206.675 100.219Z" fill="white"/>
<path fill-rule="evenodd" clip-rule="evenodd" d="M211.222 100.758C210.027 99.8314 208.349 99.8641 207.19 100.837L186.84 117.923L186.84 122.788C186.84 124.568 188.28 126.012 190.056 126.012H243.79L211.222 100.758ZM206.158 99.6011C207.896 98.1419 210.413 98.0928 212.206 99.4833L248.497 127.624H190.056C187.392 127.624 185.232 125.458 185.232 122.788L185.232 117.171L206.158 99.6011Z" fill="black"/>
<path d="M292.77 138.727L289.445 143.024C289.243 143.285 288.913 143.411 288.59 143.35L284.482 142.573C283.598 142.406 283.064 143.527 283.746 144.118L286.976 146.918C287.211 147.122 287.323 147.437 287.269 147.745L286.458 152.361C286.306 153.228 287.365 153.765 287.964 153.125L291.281 149.578C291.476 149.37 291.758 149.269 292.039 149.308L295.878 149.835C296.743 149.954 297.233 148.866 296.575 148.287L293.72 145.773C293.491 145.571 293.381 145.264 293.431 144.961L294.331 139.417C294.478 138.51 293.33 138.003 292.77 138.727Z" fill="#FFF785"/>
<path d="M247.143 48.356L247.829 51.035C247.871 51.198 247.818 51.3742 247.693 51.4918L246.097 52.9878C245.754 53.3096 246.038 53.8681 246.488 53.7576L248.62 53.2344C248.776 53.1962 248.937 53.2432 249.044 53.3581L250.643 55.0748C250.944 55.3976 251.49 55.1126 251.42 54.6695L251.033 52.2172C251.01 52.0732 251.058 51.9245 251.161 51.8178L252.572 50.361C252.89 50.0328 252.606 49.5026 252.168 49.6064L250.267 50.0572C250.115 50.0934 249.957 50.0478 249.851 49.9368L247.907 47.9052C247.589 47.573 247.027 47.9045 247.143 48.356Z" fill="#FFF785"/>
</svg>
