<svg width="382" height="363" viewBox="0 0 382 363" fill="none" xmlns="http://www.w3.org/2000/svg">
<path d="M79 9.42931C79 5.32621 82.33 2 86.4377 2H372.562C376.67 2 380 5.32621 380 9.42931V247.348C380 251.451 376.67 254.777 372.562 254.777H86.4377C82.33 254.777 79 251.451 79 247.348V9.42931Z" fill="white"/>
<path fill-rule="evenodd" clip-rule="evenodd" d="M77.8887 9.42958C77.8887 4.71149 81.7178 0.886719 86.4412 0.886719H372.566C377.289 0.886719 381.118 4.71149 381.118 9.42958V247.348C381.118 252.067 377.289 255.891 372.566 255.891H86.4412C81.7178 255.891 77.8887 252.067 77.8887 247.348V9.42958ZM86.4412 3.11383C82.9492 3.11383 80.1183 5.94149 80.1183 9.42958V247.348C80.1183 250.837 82.9491 253.664 86.4412 253.664H372.566C376.058 253.664 378.889 250.837 378.889 247.348V9.42958C378.889 5.94149 376.058 3.11383 372.566 3.11383H86.4412Z" fill="black"/>
<path fill-rule="evenodd" clip-rule="evenodd" d="M94.6113 54.337C94.6113 51.877 96.6078 49.8828 99.0706 49.8828H359.937C362.4 49.8828 364.397 51.877 364.397 54.337V235.847C364.397 238.307 362.4 240.301 359.937 240.301H99.0706C96.6078 240.301 94.6113 238.307 94.6113 235.847V54.337ZM99.0706 52.1099C97.8392 52.1099 96.841 53.107 96.841 54.337V235.847C96.841 237.077 97.8392 238.074 99.0706 238.074H359.937C361.169 238.074 362.167 237.077 362.167 235.847V54.337C362.167 53.107 361.169 52.1099 359.937 52.1099H99.0706Z" fill="black"/>
<path d="M79 9.42931C79 5.32621 82.33 2 86.4377 2H372.562C376.67 2 380 5.32622 380 9.42931V29.8389H79V9.42931Z" fill="black"/>
<path d="M103.527 16.475C103.527 19.55 100.781 22.0428 97.3952 22.0428C94.0088 22.0428 91.2637 19.55 91.2637 16.475C91.2637 13.4 94.0088 10.9072 97.3952 10.9072C100.781 10.9072 103.527 13.4 103.527 16.475Z" fill="white"/>
<path d="M121.365 16.475C121.365 19.55 118.869 22.0428 115.791 22.0428C112.712 22.0428 110.217 19.55 110.217 16.475C110.217 13.4 112.712 10.9072 115.791 10.9072C118.869 10.9072 121.365 13.4 121.365 16.475Z" fill="white"/>
<path d="M141.429 16.475C141.429 19.55 138.934 22.0428 135.855 22.0428C132.777 22.0428 130.281 19.55 130.281 16.475C130.281 13.4 132.777 10.9072 135.855 10.9072C138.934 10.9072 141.429 13.4 141.429 16.475Z" fill="white"/>
<path fill-rule="evenodd" clip-rule="evenodd" d="M148.121 239.187V50.9961H150.351V239.187H148.121Z" fill="black"/>
<path fill-rule="evenodd" clip-rule="evenodd" d="M201.633 239.187V50.9961H203.862V239.187H201.633Z" fill="black"/>
<path fill-rule="evenodd" clip-rule="evenodd" d="M255.143 239.187V50.9961H257.372V239.187H255.143Z" fill="black"/>
<path fill-rule="evenodd" clip-rule="evenodd" d="M308.652 239.187V50.9961H310.882V239.187H308.652Z" fill="black"/>
<path fill-rule="evenodd" clip-rule="evenodd" d="M363.278 113.357H95.7227V111.13H363.278V113.357Z" fill="black"/>
<path fill-rule="evenodd" clip-rule="evenodd" d="M363.278 174.601H95.7227V172.374H363.278V174.601Z" fill="black"/>
<path d="M111.334 69.9276C111.334 68.0826 112.831 66.5869 114.678 66.5869H164.845C166.692 66.5869 168.19 68.0826 168.19 69.9276V114.47C168.19 116.315 166.692 117.811 164.845 117.811H114.678C112.831 117.811 111.334 116.315 111.334 114.47V69.9276Z" fill="black"/>
<path d="M270.748 189.079C270.748 187.234 272.245 185.738 274.092 185.738H324.259C326.106 185.738 327.604 187.234 327.604 189.079V233.621C327.604 235.466 326.106 236.962 324.259 236.962H274.092C272.245 236.962 270.748 235.466 270.748 233.621V189.079Z" fill="black"/>
<path d="M122.48 82.1756C122.48 80.3306 123.978 78.835 125.825 78.835H153.695C155.542 78.835 157.04 80.3306 157.04 82.1756C157.04 84.0206 155.542 85.5163 153.695 85.5163H125.825C123.978 85.5163 122.48 84.0206 122.48 82.1756Z" fill="white"/>
<path d="M281.9 201.326C281.9 199.481 283.398 197.985 285.245 197.985H313.115C314.962 197.985 316.46 199.481 316.46 201.326C316.46 203.171 314.962 204.667 313.115 204.667H285.245C283.398 204.667 281.9 203.171 281.9 201.326Z" fill="white"/>
<path d="M122.48 102.22C122.48 100.375 123.978 98.8789 125.825 98.8789H141.432C143.279 98.8789 144.777 100.375 144.777 102.22C144.777 104.065 143.279 105.56 141.432 105.56H125.825C123.978 105.56 122.48 104.065 122.48 102.22Z" fill="white"/>
<path d="M281.9 221.371C281.9 219.526 283.398 218.03 285.245 218.03H300.852C302.699 218.03 304.197 219.526 304.197 221.371C304.197 223.216 302.699 224.712 300.852 224.712H285.245C283.398 224.712 281.9 223.216 281.9 221.371Z" fill="white"/>
<path fill-rule="evenodd" clip-rule="evenodd" d="M246.625 135.773C247.022 136.234 246.976 136.927 246.521 137.332L223.048 158.182C222.55 158.624 221.778 158.535 221.395 157.99L211.183 143.478C210.833 142.98 210.948 142.294 211.44 141.936L215.42 139.051C215.923 138.686 216.629 138.803 216.987 139.312L222.618 147.316C223.001 147.86 223.774 147.95 224.271 147.507L241.814 131.925C242.279 131.512 242.993 131.559 243.399 132.031L246.625 135.773Z" fill="#FFF785"/>
<path fill-rule="evenodd" clip-rule="evenodd" d="M330.196 145.689C330.632 145.254 330.632 144.549 330.196 144.114L318.36 132.291C317.924 131.856 317.924 131.151 318.36 130.716L321.574 127.506C322.009 127.071 322.715 127.071 323.15 127.506L334.987 139.329C335.422 139.764 336.128 139.764 336.564 139.329L348.4 127.506C348.836 127.071 349.542 127.071 349.977 127.506L353.191 130.716C353.626 131.151 353.626 131.856 353.191 132.291L341.354 144.114C340.919 144.549 340.919 145.254 341.354 145.689L353.191 157.513C353.626 157.947 353.626 158.652 353.191 159.087L349.977 162.298C349.542 162.733 348.836 162.733 348.4 162.298L336.564 150.475C336.128 150.04 335.422 150.04 334.987 150.475L323.15 162.298C322.715 162.733 322.009 162.733 321.574 162.298L318.36 159.087C317.924 158.652 317.924 157.947 318.36 157.513L330.196 145.689Z" fill="#FFF785"/>
<path fill-rule="evenodd" clip-rule="evenodd" d="M259.29 104.342C248.607 88.6478 256.518 63.5932 278.008 50.8301L280.857 55.6158C261.098 67.3509 255.632 89.0657 263.9 101.211C266.523 105.065 270.653 106.539 275.775 106.043C280.986 105.537 286.95 102.973 292.357 99.0536C297.751 95.1432 302.345 90.0607 304.953 84.807C307.557 79.5624 308.062 74.4411 305.912 70.032C304.339 66.8084 302.182 65.0038 299.834 64.0983C297.43 63.171 294.595 63.1016 291.625 63.7885C285.571 65.1891 279.799 69.5266 277.439 74.0068L272.506 71.4136C275.72 65.315 282.952 60.0798 290.367 58.3643C294.133 57.4932 298.149 57.48 301.842 58.9043C305.591 60.3505 308.777 63.193 310.923 67.5935C314.068 74.0415 313.04 81.0507 309.947 87.2805C306.859 93.5013 301.594 99.2371 295.631 103.56C289.681 107.873 282.79 110.957 276.313 111.584C269.747 112.221 263.355 110.313 259.29 104.342Z" fill="#FFF785"/>
<path d="M278.893 93.3113C278.893 93.9263 278.394 94.4249 277.778 94.4249H275.338C274.722 94.4249 274.223 93.9263 274.223 93.3113V81.0966C274.223 80.3543 273.51 79.8198 272.797 80.0275L271.063 80.5321C270.35 80.7398 269.637 80.2053 269.637 79.463V78.217C269.637 77.742 269.938 77.3193 270.388 77.1644L278.406 74.4009C278.445 74.3876 278.485 74.3809 278.526 74.3809C278.729 74.3809 278.893 74.5449 278.893 74.7472V93.3113Z" fill="black"/>
<path d="M295.277 93.3113C295.277 93.9263 294.778 94.4249 294.163 94.4249H291.723C291.107 94.4249 290.608 93.9263 290.608 93.3113V81.0966C290.608 80.3543 289.895 79.8198 289.181 80.0275L287.448 80.5321C286.735 80.7398 286.021 80.2053 286.021 79.463V78.217C286.021 77.742 286.323 77.3193 286.773 77.1644L294.791 74.4009C294.83 74.3876 294.87 74.3809 294.911 74.3809C295.113 74.3809 295.277 74.5449 295.277 74.7472V93.3113Z" fill="black"/>
<path d="M131.831 362.498L127.309 325.863L31.348 321.849L28.8359 362.498H131.831Z" fill="black"/>
<path d="M65.6041 178.975L63.5945 189.514L65.6041 200.554C70.7957 201.224 81.3799 202.562 82.1837 202.562C82.9876 202.562 88.8826 197.543 91.7296 195.034L88.7151 178.975C97.1556 176.165 99.9357 163.752 100.271 157.898C102.28 133.809 86.203 130.798 83.1886 130.798C80.1741 130.798 61.0824 130.798 58.5704 150.872C56.5607 166.931 62.4222 176.299 65.6041 178.975Z" fill="#EFCB96"/>
<path d="M184.949 207.107C182.85 210.196 174.506 218.723 173.55 220.247L177.31 229.006L187.602 231.393C189.919 228.112 196.543 224.701 198.119 219.58C199.379 215.483 194.558 209.92 192.197 209.016L199.404 199.155C200.366 197.838 200.095 195.995 198.794 195.012C197.522 194.05 195.719 194.254 194.695 195.476L184.949 207.107Z" fill="#EFCB96"/>
<path d="M71.1266 168.939C69.117 180.582 66.27 181.819 65.0977 180.983C51.0301 171.95 51.3695 143.089 60.0736 133.308C68.1122 124.274 74.1411 127.787 90.7208 123.773C107.3 119.758 112.827 126.784 109.812 135.817C105.473 148.82 91.7256 141.839 88.2087 143.345C84.6918 144.85 80.1701 148.865 78.1604 156.894C76.1508 164.924 75.1459 163.418 73.6387 158.902C72.1315 154.385 68.1122 147.861 65.0977 155.891C62.6861 162.314 68.1122 167.266 71.1266 168.939Z" fill="black"/>
<path d="M27.8303 336.401C33.8592 338.81 69.8655 338.743 87.115 338.408C100.848 338.408 129.217 337.505 132.835 333.892C136.452 330.278 135.347 302.61 134.342 291.737C138.864 297.257 147.907 300.268 155.946 294.748C163.984 289.227 191.617 238.039 191.617 232.017C191.617 225.995 180.061 215.958 175.037 215.958C170.013 215.958 147.405 243.559 143.888 241.05C140.371 238.541 139.868 223.987 127.308 205.921C117.26 191.468 98.3356 187.52 91.1344 187.353C90.4645 191.033 88.6223 198.393 78.574 198.393C68.5258 198.393 64.339 191.033 62.9992 187.353C56.4679 188.356 44.41 192.873 39.8882 196.386C35.3665 199.899 31.8496 216.46 29.8399 228.002C27.8303 239.545 20.2941 333.39 27.8303 336.401Z" fill="#FFF785"/>
<path d="M60.2373 287.284C61.6499 286.335 63.5646 286.71 64.5141 288.121L86.9009 321.388C87.8504 322.799 87.475 324.712 86.0625 325.66L40.6119 356.177C39.1994 357.125 37.2846 356.75 36.3352 355.339L13.9484 322.072C12.9989 320.661 13.3743 318.749 14.7868 317.8L60.2373 287.284Z" fill="white"/>
<path fill-rule="evenodd" clip-rule="evenodd" d="M59.6622 286.431C61.5455 285.167 64.0985 285.667 65.3645 287.548L87.7513 320.815C89.0173 322.696 88.5168 325.246 86.6334 326.511L41.1829 357.027C39.2995 358.292 36.7465 357.792 35.4805 355.911L13.0937 322.644C11.8277 320.763 12.3282 318.212 14.2116 316.948L59.6622 286.431ZM63.6594 288.693C63.0265 287.752 61.7499 287.502 60.8083 288.134L15.3577 318.651C14.416 319.283 14.1658 320.558 14.7988 321.499L37.1856 354.766C37.8186 355.707 39.0951 355.957 40.0367 355.324L85.4873 324.808C86.429 324.175 86.6792 322.9 86.0462 321.96L63.6594 288.693Z" fill="black"/>
<path d="M68.0223 324.357C64.8069 322.751 62.9982 321.011 62.4958 320.342C59.9837 323.186 54.6581 329.877 53.4523 333.892C51.9451 338.91 59.9837 346.438 62.4958 346.94C65.0078 347.441 72.544 342.925 74.0512 340.416C75.257 338.408 72.544 334.728 71.0368 333.39C71.8741 332.219 74.8551 330.881 74.0512 328.873C73.0464 326.364 72.0416 326.364 68.0223 324.357Z" fill="#EFCB96"/>
<path d="M2.20986 259.118C15.2726 221.982 31.6847 201.908 39.8908 196.388C63.2028 206.826 56.6379 233.19 50.4415 245.067C46.9246 250.922 39.8908 264.338 39.8908 271.163C39.8908 279.694 66.5187 313.318 65.0115 320.344C63.5043 327.37 52.9536 335.901 48.4319 334.897C43.9102 333.894 20.7991 313.318 7.7364 295.753C-2.71379 281.702 -0.302205 265.475 2.20986 259.118Z" fill="#FFF785"/>
<path d="M130.322 242.056L134.342 292.24C135.949 293.445 139.031 295.753 140.371 296.255C139.969 292.24 133.504 258.449 130.322 242.056Z" fill="black"/>
<path d="M2.7128 258.114C6.39716 263.802 12.6606 279.493 8.23934 296.756C3.55015 291.738 -4.12002 276.984 2.7128 258.114Z" fill="black"/>
<path d="M134.344 291.739C146.402 286.118 156.45 288.393 159.967 290.233C158.795 292.575 154.641 297.359 147.406 297.761C140.172 298.162 135.684 293.913 134.344 291.739Z" fill="black"/>
<path d="M46.421 272.166C46.0191 264.136 49.2681 250.085 50.9428 244.062C49.9379 245.568 47.1244 250.285 43.909 257.11C39.8897 265.642 38.8848 271.162 41.3969 276.181C42.4848 278.354 46.6647 285.528 51.2265 293.243L53.4549 291.374C49.913 284.192 46.6815 277.37 46.421 272.166Z" fill="black"/>
<path d="M80.5872 350.453L77.0703 362.999H80.5872V350.453Z" fill="white"/>
<path d="M78.069 178.821C82.8922 180.427 86.945 179.49 88.6197 178.821L90.127 185.847C83.6961 185.044 79.4088 180.661 78.069 178.821Z" fill="black"/>
</svg>
