<svg width="50" height="47" viewBox="0 0 50 47" fill="none" xmlns="http://www.w3.org/2000/svg">
<path d="M31.9622 29.2663C33.5866 29.2663 38.2359 28.3698 40.1755 27.4124C41.7025 26.6588 45.5672 23.4416 45.5672 22.9242C45.5672 22.7931 45.7219 22.5346 45.9108 22.3496C46.3871 21.8833 47.277 20.0398 47.7319 18.5778C48.5015 16.1029 48.6287 14.7742 48.2865 12.7924C48.0991 11.7053 47.8432 10.7069 47.7182 10.5741C47.5934 10.441 47.4911 10.1422 47.4911 9.90984C47.4911 9.67774 47.089 8.7598 46.5979 7.87036C45.7085 6.25969 42.5656 3.03912 41.1696 2.30721C39.3861 1.37246 38.0993 0.849487 36.2028 0.289864C35.5113 0.0855086 30.0495 1.79981e-09 17.7192 1.79981e-09L0 0C0.113452 0.00060286 17.2845 15.9948 31.4734 29.2663H31.9622Z" fill="#4DBDF5"/>
<path fill-rule="evenodd" clip-rule="evenodd" d="M31.4734 29.2663H0.162027L0.341088 46.8261H25.2276C38.9153 46.8261 50.0627 46.7686 49.9997 46.6984C49.5993 46.2517 41.2433 38.4045 31.4734 29.2663Z" fill="#FFF785"/>
<path d="M0 0C0 0 0.0633558 19.5733 0.162027 29.2663H31.4734C17.2845 15.9948 0.113452 0.00060286 0 0Z" fill="#63E09D"/>
</svg>
