<svg width="139" height="49" viewBox="0 0 139 49" fill="none" xmlns="http://www.w3.org/2000/svg">
<path d="M71.9595 27L67.1509 18.645H64.5362V27H61.11V6.11243H68.323C69.9259 6.11243 71.2783 6.39294 72.3803 6.95394C73.5023 7.51495 74.3338 8.2663 74.8748 9.208C75.4358 10.1497 75.7163 11.2016 75.7163 12.3637C75.7163 13.7261 75.3156 14.9684 74.5141 16.0904C73.7327 17.1924 72.5205 17.9437 70.8776 18.3444L76.0469 27H71.9595ZM64.5362 15.9101H68.323C69.6053 15.9101 70.567 15.5895 71.2082 14.9483C71.8694 14.3072 72.2 13.4456 72.2 12.3637C72.2 11.2817 71.8794 10.4402 71.2382 9.83913C70.5971 9.21802 69.6253 8.90746 68.323 8.90746H64.5362V15.9101ZM95.2465 10.4402V27H91.8203V25.0465C91.2794 25.7277 90.5681 26.2687 89.6865 26.6694C88.8249 27.0501 87.9033 27.2404 86.9215 27.2404C85.6192 27.2404 84.4471 26.9699 83.4052 26.429C82.3834 25.888 81.5719 25.0866 80.9708 24.0246C80.3898 22.9627 80.0992 21.6804 80.0992 20.1777V10.4402H83.4954V19.6668C83.4954 21.1495 83.866 22.2915 84.6074 23.093C85.3487 23.8744 86.3605 24.2651 87.6428 24.2651C88.9251 24.2651 89.9369 23.8744 90.6783 23.093C91.4396 22.2915 91.8203 21.1495 91.8203 19.6668V10.4402H95.2465ZM98.7753 18.645C98.7753 16.982 99.1159 15.5093 99.7971 14.227C100.498 12.9447 101.44 11.9529 102.622 11.2517C103.824 10.5304 105.147 10.1697 106.589 10.1697C107.892 10.1697 109.024 10.4302 109.985 10.9511C110.967 11.452 111.749 12.0832 112.33 12.8445V10.4402H115.786V27H112.33V24.5356C111.749 25.317 110.957 25.9681 109.955 26.4891C108.954 27.01 107.812 27.2705 106.529 27.2705C105.107 27.2705 103.804 26.9098 102.622 26.1885C101.44 25.4472 100.498 24.4254 99.7971 23.123C99.1159 21.8006 98.7753 20.308 98.7753 18.645ZM112.33 18.7051C112.33 17.563 112.089 16.5712 111.608 15.7297C111.148 14.8882 110.536 14.2471 109.775 13.8063C109.014 13.3655 108.192 13.1451 107.311 13.1451C106.429 13.1451 105.608 13.3655 104.846 13.8063C104.085 14.227 103.464 14.8582 102.983 15.6997C102.522 16.5212 102.292 17.5029 102.292 18.645C102.292 19.787 102.522 20.7888 102.983 21.6504C103.464 22.5119 104.085 23.1731 104.846 23.6339C105.628 24.0747 106.449 24.2951 107.311 24.2951C108.192 24.2951 109.014 24.0747 109.775 23.6339C110.536 23.1932 111.148 22.552 111.608 21.7105C112.089 20.8489 112.33 19.8471 112.33 18.7051ZM126.447 27.2705C125.145 27.2705 123.973 27.0401 122.931 26.5792C121.909 26.0984 121.097 25.4572 120.496 24.6558C119.895 23.8343 119.575 22.9227 119.535 21.9209H123.081C123.141 22.6221 123.472 23.2132 124.073 23.6941C124.694 24.1549 125.465 24.3853 126.387 24.3853C127.349 24.3853 128.09 24.205 128.611 23.8443C129.152 23.4636 129.422 22.9828 129.422 22.4017C129.422 21.7806 129.122 21.3198 128.521 21.0192C127.94 20.7187 127.008 20.3881 125.726 20.0275C124.484 19.6868 123.472 19.3563 122.69 19.0357C121.909 18.7151 121.228 18.2242 120.647 17.563C120.086 16.9018 119.805 16.0303 119.805 14.9483C119.805 14.0667 120.066 13.2653 120.587 12.544C121.107 11.8027 121.849 11.2216 122.811 10.8009C123.792 10.3801 124.914 10.1697 126.177 10.1697C128.06 10.1697 129.573 10.6506 130.715 11.6123C131.877 12.554 132.498 13.8463 132.578 15.4893H129.152C129.092 14.748 128.791 14.1569 128.25 13.7161C127.709 13.2753 126.978 13.0549 126.056 13.0549C125.155 13.0549 124.463 13.2252 123.983 13.5658C123.502 13.9064 123.261 14.3573 123.261 14.9183C123.261 15.3591 123.422 15.7297 123.742 16.0303C124.063 16.3308 124.453 16.5712 124.914 16.7516C125.375 16.9119 126.056 17.1222 126.958 17.3827C128.16 17.7033 129.142 18.0339 129.903 18.3745C130.685 18.6951 131.356 19.1759 131.917 19.8171C132.478 20.4582 132.768 21.3098 132.788 22.3717C132.788 23.3134 132.528 24.1549 132.007 24.8962C131.486 25.6375 130.745 26.2186 129.783 26.6394C128.841 27.0601 127.729 27.2705 126.447 27.2705Z" fill="black"/>
<path d="M64.2281 43.063L62.2997 39.6569H61.4732V43.063H59.72V34.3223H63.0009C63.6771 34.3223 64.2532 34.4433 64.729 34.6854C65.2049 34.9192 65.5597 35.2406 65.7934 35.6497C66.0355 36.0504 66.1566 36.5012 66.1566 37.0021C66.1566 37.5781 65.9896 38.0999 65.6557 38.5674C65.3218 39.0266 64.825 39.3438 64.1655 39.5191L66.2568 43.063H64.2281ZM61.4732 38.342H62.9383C63.4142 38.342 63.769 38.2293 64.0027 38.0039C64.2365 37.7701 64.3533 37.4487 64.3533 37.0397C64.3533 36.6389 64.2365 36.33 64.0027 36.113C63.769 35.8876 63.4142 35.7749 62.9383 35.7749H61.4732V38.342ZM74.3541 36.1255V43.063H72.5885V42.1864C72.3631 42.487 72.0667 42.7249 71.6994 42.9002C71.3404 43.0672 70.948 43.1506 70.5223 43.1506C69.9796 43.1506 69.4996 43.0379 69.0822 42.8125C68.6647 42.5788 68.335 42.2407 68.0929 41.7982C67.8591 41.3474 67.7423 40.8131 67.7423 40.1953V36.1255H69.4954V39.9449C69.4954 40.4959 69.6332 40.9216 69.9086 41.2222C70.1841 41.5144 70.5598 41.6605 71.0357 41.6605C71.5199 41.6605 71.8997 41.5144 72.1752 41.2222C72.4507 40.9216 72.5885 40.4959 72.5885 39.9449V36.1255H74.3541ZM75.6957 39.5692C75.6957 38.8679 75.8335 38.246 76.109 37.7033C76.3928 37.1607 76.7727 36.7433 77.2485 36.4511C77.7327 36.1589 78.2712 36.0128 78.8639 36.0128C79.3815 36.0128 79.8323 36.1172 80.2163 36.3259C80.6087 36.5346 80.9218 36.7976 81.1555 37.1148V36.1255H82.9212V43.063H81.1555V42.0487C80.9301 42.3742 80.6171 42.6456 80.2163 42.8626C79.824 43.0713 79.369 43.1757 78.8514 43.1757C78.267 43.1757 77.7327 43.0254 77.2485 42.7249C76.7727 42.4243 76.3928 42.0027 76.109 41.4601C75.8335 40.9091 75.6957 40.2788 75.6957 39.5692ZM81.1555 39.5942C81.1555 39.1685 81.0721 38.8053 80.9051 38.5048C80.7381 38.1959 80.5127 37.9621 80.2289 37.8035C79.945 37.6366 79.6403 37.5531 79.3147 37.5531C78.9891 37.5531 78.6886 37.6324 78.4131 37.791C78.1376 37.9496 77.9122 38.1834 77.7369 38.4923C77.5699 38.7928 77.4864 39.1518 77.4864 39.5692C77.4864 39.9866 77.5699 40.3539 77.7369 40.6712C77.9122 40.9801 78.1376 41.218 78.4131 41.385C78.6969 41.5519 78.9975 41.6354 79.3147 41.6354C79.6403 41.6354 79.945 41.5561 80.2289 41.3975C80.5127 41.2305 80.7381 40.9968 80.9051 40.6962C81.0721 40.3873 81.1555 40.02 81.1555 39.5942ZM88.5405 36.0253C89.367 36.0253 90.0349 36.2883 90.5441 36.8142C91.0534 37.3318 91.308 38.0582 91.308 38.9932V43.063H89.5548V39.2311C89.5548 38.6801 89.4171 38.2585 89.1416 37.9663C88.8661 37.6658 88.4904 37.5155 88.0146 37.5155C87.5303 37.5155 87.1463 37.6658 86.8625 37.9663C86.587 38.2585 86.4492 38.6801 86.4492 39.2311V43.063H84.6961V36.1255H86.4492V36.9896C86.683 36.689 86.9794 36.4553 87.3383 36.2883C87.7057 36.113 88.1064 36.0253 88.5405 36.0253ZM95.7551 36.0128C96.2727 36.0128 96.7277 36.1172 97.1201 36.3259C97.5125 36.5262 97.8213 36.7892 98.0468 37.1148V36.1255H99.8124V43.1131C99.8124 43.7559 99.683 44.3278 99.4242 44.8287C99.1654 45.3379 98.7772 45.7386 98.2596 46.0308C97.742 46.3314 97.1159 46.4816 96.3813 46.4816C95.3962 46.4816 94.5864 46.2521 93.9519 45.7929C93.3258 45.3337 92.971 44.7076 92.8875 43.9145H94.6281C94.7199 44.2318 94.9161 44.4822 95.2167 44.6659C95.5256 44.8579 95.8971 44.9539 96.3312 44.9539C96.8404 44.9539 97.2537 44.7994 97.5709 44.4906C97.8881 44.19 98.0468 43.7309 98.0468 43.1131V42.0361C97.8213 42.3617 97.5083 42.633 97.1076 42.8501C96.7152 43.0672 96.2644 43.1757 95.7551 43.1757C95.1707 43.1757 94.6365 43.0254 94.1522 42.7249C93.668 42.4243 93.284 42.0027 93.0002 41.4601C92.7247 40.9091 92.5869 40.2788 92.5869 39.5692C92.5869 38.8679 92.7247 38.246 93.0002 37.7033C93.284 37.1607 93.6639 36.7433 94.1397 36.4511C94.6239 36.1589 95.1624 36.0128 95.7551 36.0128ZM98.0468 39.5942C98.0468 39.1685 97.9633 38.8053 97.7963 38.5048C97.6293 38.1959 97.4039 37.9621 97.1201 37.8035C96.8362 37.6366 96.5315 37.5531 96.2059 37.5531C95.8804 37.5531 95.5798 37.6324 95.3043 37.791C95.0288 37.9496 94.8034 38.1834 94.6281 38.4923C94.4611 38.7928 94.3777 39.1518 94.3777 39.5692C94.3777 39.9866 94.4611 40.3539 94.6281 40.6712C94.8034 40.9801 95.0288 41.218 95.3043 41.385C95.5882 41.5519 95.8887 41.6354 96.2059 41.6354C96.5315 41.6354 96.8362 41.5561 97.1201 41.3975C97.4039 41.2305 97.6293 40.9968 97.7963 40.6962C97.9633 40.3873 98.0468 40.02 98.0468 39.5942ZM108.741 43.063L106.387 40.1077V43.063H104.634V33.7963H106.387V39.0683L108.716 36.1255H110.995L107.94 39.6068L111.02 43.063H108.741ZM118.458 39.444C118.458 39.6944 118.442 39.9198 118.408 40.1202H113.337C113.378 40.6211 113.554 41.0135 113.863 41.2973C114.172 41.5812 114.551 41.7231 115.002 41.7231C115.653 41.7231 116.117 41.4434 116.392 40.8841H118.283C118.083 41.5519 117.699 42.1029 117.131 42.537C116.563 42.9628 115.866 43.1757 115.04 43.1757C114.372 43.1757 113.771 43.0296 113.237 42.7374C112.711 42.4369 112.297 42.0153 111.997 41.4726C111.705 40.93 111.559 40.3039 111.559 39.5942C111.559 38.8763 111.705 38.246 111.997 37.7033C112.289 37.1607 112.698 36.7433 113.224 36.4511C113.75 36.1589 114.355 36.0128 115.04 36.0128C115.699 36.0128 116.288 36.1547 116.805 36.4386C117.331 36.7224 117.736 37.1273 118.02 37.6533C118.312 38.1709 118.458 38.7678 118.458 39.444ZM116.643 38.9431C116.634 38.4923 116.472 38.1333 116.154 37.8661C115.837 37.5906 115.449 37.4529 114.99 37.4529C114.556 37.4529 114.188 37.5865 113.888 37.8536C113.596 38.1124 113.416 38.4756 113.349 38.9431H116.643ZM121.554 33.7963V43.063H119.801V33.7963H121.554ZM122.898 39.5692C122.898 38.8679 123.036 38.246 123.311 37.7033C123.595 37.1607 123.975 36.7433 124.451 36.4511C124.935 36.1589 125.473 36.0128 126.066 36.0128C126.584 36.0128 127.034 36.1172 127.418 36.3259C127.811 36.5346 128.124 36.7976 128.358 37.1148V36.1255H130.123V43.063H128.358V42.0487C128.132 42.3742 127.819 42.6456 127.418 42.8626C127.026 43.0713 126.571 43.1757 126.053 43.1757C125.469 43.1757 124.935 43.0254 124.451 42.7249C123.975 42.4243 123.595 42.0027 123.311 41.4601C123.036 40.9091 122.898 40.2788 122.898 39.5692ZM128.358 39.5942C128.358 39.1685 128.274 38.8053 128.107 38.5048C127.94 38.1959 127.715 37.9621 127.431 37.8035C127.147 37.6366 126.842 37.5531 126.517 37.5531C126.191 37.5531 125.891 37.6324 125.615 37.791C125.34 37.9496 125.114 38.1834 124.939 38.4923C124.772 38.7928 124.689 39.1518 124.689 39.5692C124.689 39.9866 124.772 40.3539 124.939 40.6712C125.114 40.9801 125.34 41.218 125.615 41.385C125.899 41.5519 126.2 41.6354 126.517 41.6354C126.842 41.6354 127.147 41.5561 127.431 41.3975C127.715 41.2305 127.94 40.9968 128.107 40.6962C128.274 40.3873 128.358 40.02 128.358 39.5942ZM134.553 43.1757C133.985 43.1757 133.476 43.0755 133.025 42.8752C132.574 42.6664 132.215 42.3868 131.948 42.0361C131.689 41.6855 131.548 41.2973 131.522 40.8715H133.288C133.322 41.1387 133.451 41.3599 133.676 41.5352C133.91 41.7106 134.198 41.7982 134.54 41.7982C134.874 41.7982 135.133 41.7314 135.317 41.5979C135.509 41.4643 135.605 41.2931 135.605 41.0844C135.605 40.859 135.488 40.6921 135.254 40.5835C135.029 40.4667 134.666 40.3414 134.165 40.2079C133.647 40.0826 133.221 39.9532 132.887 39.8197C132.562 39.6861 132.278 39.4815 132.036 39.2061C131.802 38.9306 131.685 38.5591 131.685 38.0915C131.685 37.7075 131.794 37.3569 132.011 37.0397C132.236 36.7224 132.554 36.472 132.963 36.2883C133.38 36.1046 133.868 36.0128 134.428 36.0128C135.254 36.0128 135.914 36.2215 136.406 36.6389C136.899 37.048 137.17 37.6032 137.22 38.3044H135.542C135.517 38.0289 135.4 37.8119 135.192 37.6533C134.991 37.4863 134.72 37.4028 134.378 37.4028C134.06 37.4028 133.814 37.4612 133.639 37.5781C133.472 37.695 133.388 37.8578 133.388 38.0665C133.388 38.3003 133.505 38.4797 133.739 38.605C133.973 38.7218 134.336 38.8429 134.828 38.9681C135.329 39.0933 135.743 39.2227 136.068 39.3563C136.394 39.4899 136.673 39.6986 136.907 39.9824C137.149 40.2579 137.275 40.6253 137.283 41.0844C137.283 41.4852 137.17 41.8441 136.945 42.1614C136.728 42.4786 136.41 42.7291 135.993 42.9127C135.584 43.088 135.104 43.1757 134.553 43.1757Z" fill="black"/>
<path d="M31.9622 29.8987C33.5866 29.8987 38.2359 29.0021 40.1755 28.0447C41.7025 27.2912 45.5672 24.0739 45.5672 23.5565C45.5672 23.4255 45.7219 23.1669 45.9108 22.9819C46.3871 22.5157 47.277 20.6721 47.7319 19.2101C48.5015 16.7352 48.6287 15.4065 48.2865 13.4248C48.0991 12.3376 47.8432 11.3392 47.7182 11.2064C47.5934 11.0733 47.4911 10.7745 47.4911 10.5422C47.4911 10.3101 47.089 9.39212 46.5979 8.50268C45.7085 6.89201 42.5656 3.67144 41.1696 2.93953C39.3861 2.00479 38.0993 1.48181 36.2028 0.922188C35.5113 0.717833 30.0495 0.632324 17.7192 0.632324L0 0.632324C0.113452 0.632927 17.2845 16.6271 31.4734 29.8987H31.9622Z" fill="#4DBDF5"/>
<path fill-rule="evenodd" clip-rule="evenodd" d="M31.4734 29.8987H0.162027L0.341088 47.4585H25.2276C38.9153 47.4585 50.0627 47.401 49.9997 47.3307C49.5993 46.8841 41.2433 39.0368 31.4734 29.8987Z" fill="#FFF785"/>
<path d="M0 0.632324C0 0.632324 0.0633558 20.2057 0.162027 29.8987H31.4734C17.2845 16.6271 0.113452 0.632927 0 0.632324Z" fill="#63E09D"/>
</svg>
