<svg width="18" height="18" viewBox="0 0 18 18" fill="#FEFEFE" xmlns="http://www.w3.org/2000/svg">
<path fill-rule="evenodd" clip-rule="evenodd" d="M1.45251 12.0979C-0.849523 6.44748 3.3074 0.265259 9.40878 0.265259H9.74806C14.3055 0.265259 18 3.95978 18 8.5172C18 13.6079 13.8732 17.7347 8.78253 17.7347H0.527806C0.303848 17.7347 0.104276 17.5933 0.0299458 17.3821C-0.0443848 17.1708 0.0227135 16.9356 0.197332 16.7954L2.27835 15.1242C2.46033 14.978 2.52471 14.7297 2.43664 14.5135L1.45251 12.0979ZM10.1889 6.01804C10.1889 5.58081 9.83451 5.22637 9.39728 5.22637C8.96006 5.22637 8.60562 5.58081 8.60562 6.01804V8.12917H6.49448C6.05726 8.12917 5.70282 8.48361 5.70282 8.92084C5.70282 9.35806 6.05726 9.7125 6.49448 9.7125H8.60562V11.8236C8.60562 12.2608 8.96006 12.6153 9.39728 12.6153C9.83451 12.6153 10.1889 12.2608 10.1889 11.8236V9.7125H12.3C12.7373 9.7125 13.0917 9.35806 13.0917 8.92084C13.0917 8.48361 12.7373 8.12917 12.3 8.12917H10.1889V6.01804Z"/>
</svg>
