<svg viewBox="0 0 18 18" fill="#AEAEAE" xmlns="http://www.w3.org/2000/svg">
<path fill-rule="evenodd" clip-rule="evenodd" d="M8.56273 1.41116C6.16212 -0.181006 3.22618 -0.441049 0.626854 0.708262C0.248256 0.875662 0 1.28099 0 1.73173V12.7783C0 13.5182 0.67608 14.0242 1.2976 13.7494C3.42618 12.8082 5.83041 13.0212 7.79626 14.325L8.76935 14.9704C8.84356 15.0196 8.92295 15.0411 9 15.0396C9.07705 15.0411 9.15644 15.0196 9.23065 14.9704L10.2037 14.325C12.1696 13.0212 14.5738 12.8082 16.7024 13.7494C17.3239 14.0242 18 13.5182 18 12.7783V1.73173C18 1.28099 17.7517 0.875662 17.3731 0.708262C14.7738 -0.441049 11.8379 -0.181006 9.43728 1.41116L9 1.70118L8.56273 1.41116ZM9.64286 3.67487C9.64286 3.28241 9.35504 2.96426 9 2.96426C8.64496 2.96426 8.35714 3.28241 8.35714 3.67487V12.6759C8.35714 13.0684 8.64496 13.3865 9 13.3865C9.35504 13.3865 9.64286 13.0684 9.64286 12.6759V3.67487Z"/>
<path d="M1.04986 15.5584C2.7846 14.4398 4.92969 14.4398 6.66442 15.5584L7.59636 16.1593C8.46373 16.7186 9.53627 16.7186 10.4036 16.1593L11.3356 15.5584C13.0703 14.4398 15.2154 14.4398 16.9501 15.5584L17.0382 15.6152C17.3449 15.8129 17.4485 16.248 17.2696 16.587C17.0907 16.926 16.697 17.0405 16.3904 16.8428L16.3023 16.786C14.9679 15.9256 13.3178 15.9256 11.9834 16.786L11.0515 17.3869C9.78378 18.2044 8.21622 18.2044 6.94853 17.3869L6.01659 16.786C4.68218 15.9256 3.03211 15.9256 1.6977 16.786L1.60963 16.8428C1.30296 17.0405 0.909322 16.926 0.730428 16.587C0.551533 16.248 0.655121 15.8129 0.961797 15.6152L1.04986 15.5584Z"/>
</svg>
