<svg viewBox="0 0 18 18" fill="#AEAEAE" xmlns="http://www.w3.org/2000/svg">
<path fill-rule="evenodd" clip-rule="evenodd" d="M9.03226 0.41941C9.03226 0.2947 8.93116 0.193604 8.80645 0.193604H2.48387C1.11207 0.193604 0 1.30567 0 2.67748V15.3226C0 16.6944 1.11207 17.8065 2.48387 17.8065H11.5161C12.8879 17.8065 14 16.6944 14 15.3226V6.42321C14 6.2985 13.8989 6.1974 13.7742 6.1974H9.70968C9.33555 6.1974 9.03226 5.89411 9.03226 5.51998V0.41941ZM9.70968 9.22586C10.0838 9.22586 10.3871 9.52915 10.3871 9.90328C10.3871 10.2774 10.0838 10.5807 9.70968 10.5807H4.29032C3.91619 10.5807 3.6129 10.2774 3.6129 9.90328C3.6129 9.52915 3.91619 9.22586 4.29032 9.22586H9.70968ZM9.70968 12.8388C10.0838 12.8388 10.3871 13.1421 10.3871 13.5162C10.3871 13.8903 10.0838 14.1936 9.70968 14.1936H4.29032C3.91619 14.1936 3.6129 13.8903 3.6129 13.5162C3.6129 13.1421 3.91619 12.8388 4.29032 12.8388H9.70968Z"/>
<path d="M10.3871 0.712177C10.3871 0.545536 10.5611 0.439728 10.6908 0.544404C10.8 0.632571 10.8981 0.735862 10.9819 0.852551L13.7035 4.6442C13.7654 4.73053 13.6983 4.84256 13.592 4.84256H10.6129C10.4882 4.84256 10.3871 4.74146 10.3871 4.61675V0.712177Z"/>
</svg>
