<svg width="40" height="40" viewBox="0 0 40 40" fill="none" xmlns="http://www.w3.org/2000/svg">
<rect width="40" height="40" rx="20" fill="#63E09D"/>
<path fill-rule="evenodd" clip-rule="evenodd" d="M22.6129 8.3C22.6129 8.13431 22.4829 8 22.3226 8H14.1935C12.4298 8 11 9.47746 11 11.3V28.1C11 29.9225 12.4298 31.4 14.1935 31.4H25.8065C27.5702 31.4 29 29.9225 29 28.1V16.2765C29 16.1108 28.87 15.9765 28.7097 15.9765H23.4839C23.0028 15.9765 22.6129 15.5735 22.6129 15.0765V8.3ZM23.4839 20C23.9649 20 24.3548 20.4029 24.3548 20.9C24.3548 21.3971 23.9649 21.8 23.4839 21.8H16.5161C16.0351 21.8 15.6452 21.3971 15.6452 20.9C15.6452 20.4029 16.0351 20 16.5161 20H23.4839ZM23.4839 24.8C23.9649 24.8 24.3548 25.2029 24.3548 25.7C24.3548 26.1971 23.9649 26.6 23.4839 26.6H16.5161C16.0351 26.6 15.6452 26.1971 15.6452 25.7C15.6452 25.2029 16.0351 24.8 16.5161 24.8H23.4839Z" fill="#FEFEFE"/>
<path d="M24.3548 8.68896C24.3548 8.46757 24.5785 8.32699 24.7453 8.46606C24.8857 8.5832 25.0119 8.72043 25.1196 8.87546L28.6187 13.9129C28.6984 14.0276 28.6121 14.1765 28.4755 14.1765H24.6452C24.4848 14.1765 24.3548 14.0422 24.3548 13.8765V8.68896Z" fill="#FEFEFE"/>
</svg>
