<svg width="40" height="40" viewBox="0 0 40 40" fill="none" xmlns="http://www.w3.org/2000/svg">
<path fill-rule="evenodd" clip-rule="evenodd" d="M31.1784 14.6606C31.1784 16.7538 31.7317 17.9876 32.9492 19.4094C33.8718 20.4568 34.1666 21.8014 34.1666 23.2601C34.1666 24.7171 33.6879 26.1003 32.7289 27.2233C31.4733 28.5695 29.7026 29.4289 27.8954 29.5783C25.2766 29.8016 22.6561 29.9896 20.0008 29.9896C17.3439 29.9896 14.7251 29.8771 12.1062 29.5783C10.2974 29.4289 8.52668 28.5695 7.27276 27.2233C6.31368 26.1003 5.83331 24.7171 5.83331 23.2601C5.83331 21.8014 6.12982 20.4568 7.05079 19.4094C8.30637 17.9876 8.82318 16.7538 8.82318 14.6606V13.9505C8.82318 11.1473 9.5222 9.31424 10.9616 7.51981C13.1018 4.90287 16.5322 3.33337 19.9263 3.33337H20.0753C23.5423 3.33337 27.0837 4.97841 29.1874 7.70781C30.5523 9.46531 31.1784 11.2211 31.1784 13.9505V14.6606ZM15.1228 33.4348C15.1228 32.5955 15.893 32.2111 16.6053 32.0466C17.4385 31.8703 22.5154 31.8703 23.3486 32.0466C24.0609 32.2111 24.8311 32.5955 24.8311 33.4348C24.7897 34.2338 24.321 34.9422 23.6733 35.392C22.8335 36.0467 21.8479 36.4613 20.8176 36.6107C20.2478 36.6845 19.6879 36.6862 19.138 36.6107C18.106 36.4613 17.1204 36.0467 16.2823 35.3903C15.633 34.9422 15.1642 34.2338 15.1228 33.4348Z" fill="white"/>
</svg>
