<svg width="11" height="10" viewBox="0 0 11 10" fill="none" xmlns="http://www.w3.org/2000/svg">
<path id="Union" d="M6.15217 0.652174C6.15217 0.291988 5.86019 0 5.5 0C5.13981 0 4.84783 0.291988 4.84783 0.652174V4.34783H1.15217C0.791989 4.34783 0.5 4.63981 0.5 5C0.5 5.36019 0.791988 5.65217 1.15217 5.65217H4.84783V9.34783C4.84783 9.70801 5.13981 10 5.5 10C5.86019 10 6.15217 9.70801 6.15217 9.34783V5.65217H9.84783C10.208 5.65217 10.5 5.36019 10.5 5C10.5 4.63981 10.208 4.34783 9.84783 4.34783H6.15217V0.652174Z" fill="#63E09D"/>
</svg>
