<svg width="14" height="15" viewBox="0 0 14 15" fill="none" xmlns="http://www.w3.org/2000/svg">
<path fill-rule="evenodd" clip-rule="evenodd" d="M8.82148 10.1749C6.68902 11.8828 3.56754 11.7484 1.59076 9.77163C-0.530254 7.65062 -0.530254 4.21178 1.59076 2.09076C3.71178 -0.0302538 7.15062 -0.0302534 9.27163 2.09076C11.2484 4.06754 11.3828 7.18901 9.67491 9.32148L13.8232 13.4698C14.0589 13.7055 14.0589 14.0876 13.8232 14.3232C13.5876 14.5589 13.2055 14.5589 12.9698 14.3232L8.82148 10.1749ZM2.44419 8.9182C0.794513 7.26853 0.794513 4.59387 2.44419 2.94419C4.09387 1.29451 6.76853 1.29451 8.4182 2.94419C10.0667 4.59266 10.0679 7.2646 8.42183 8.91457C8.42062 8.91577 8.4194 8.91697 8.41819 8.91818C8.41698 8.91939 8.41577 8.92061 8.41457 8.92183C6.76461 10.5679 4.09266 10.5667 2.44419 8.9182Z" fill="#837F7F"/>
</svg>
